# vtk DataFile Version 3.0
DiscoGMPI partitioned tetra mesh
ASCII
DATASET UNSTRUCTURED_GRID
POINTS 21 double
1.0 0.0 1.0
1.0 1.0 1.0
1.0 0.0 0.4999999999999986
1.0 0.4999999999999986 1.0
1.0 1.0 0.4999999999999986
0.4999999999999986 0.0 1.0
0.4999999999999986 1.0 1.0
1.0 0.7386115160349848 0.7386115160349848
1.0 0.3749999999999994 0.6250000000000001
1.0 0.6491435860058306 0.357476919339164
1.0 0.2812500000000007 0.2812500000000007
0.7062499999999995 0.0 0.7062499999999994
0.3749999999999993 0.0 0.625
0.6437499999999995 0.0 0.352083333333333
0.7062499999999995 1.0 0.7062499999999994
0.3749999999999993 1.0 0.625
0.6437499999999995 1.0 0.352083333333333
0.7062499999999995 0.7062499999999994 1.0
0.3749999999999994 0.6250000000000001 1.0
0.6437499999999996 0.3520833333333331 1.0
0.4263392857142864 0.4263392857142861 0.4263392857142864
CELLS 25 125
4 14 7 17 20
4 17 7 8 20
4 17 15 14 20
4 19 17 8 20
4 8 7 9 20
4 15 16 14 20
4 18 17 19 20
4 19 8 11 20
4 8 13 11 20
4 12 19 11 20
4 17 3 8 7
4 15 6 17 14
4 3 8 19 17
4 13 10 8 2
4 19 11 8 0
4 8 11 13 2
4 19 5 12 11
4 11 13 12 20
4 0 8 19 3
4 11 8 0 2
4 14 1 17 7
4 11 19 5 0
4 1 17 6 14
4 3 17 1 7
4 7 14 1 4
CELL_TYPES 25
10
10
10
10
10
10
10
10
10
10
10
10
10
10
10
10
10
10
10
10
10
10
10
10
10
CELL_DATA 25
SCALARS partition_id int 1
LOOKUP_TABLE default
0
0
0
0
0
0
0
0
0
0
0
0
0
0
0
0
0
0
0
0
0
0
0
0
0
