# vtk DataFile Version 2.0
periodic_box_2x1x1_hx4_unstructured, Created by Gmsh
ASCII
DATASET UNSTRUCTURED_GRID
POINTS 243 double
0 0 0
2 0 0
2 1 0
0 1 0
0 0 1
2 0 1
2 1 1
0 1 1
0.2499999999995476 0 0
0.4999999999988241 0 0
0.7499999999980952 0 0
0.999999999997388 0 0
1.249999999998025 0 0
1.499999999998683 0 0
1.749999999999342 0 0
2 0.25 0
2 0.5 0
2 0.75 0
1.749999999999569 1 0
1.5 1 0
1.249999999998253 1 0
1 1 0
0.7499999999983227 1 0
0.5 1 0
0.2499999999997751 1 0
0 0.7500000000003465 0
0 0.5000000000020591 0
0 0.2500000000010404 0
0.2499999999995976 0 1
0.5 0 1
0.7499999999981452 0 1
1 0 1
1.249999999997797 0 1
1.5 0 1
1.749999999999114 0 1
2 0.25 1
2 0.5 1
2 0.75 1
1.749999999999797 1 1
1.5 1 1
1.24999999999848 1 1
1 1 1
0.7499999999985503 1 1
0.5 1 1
0.2500000000000027 1 1
0 0.75 1
0 0.5 1
0 0.25 1
0 0 0.2499999999994121
0 0 0.499999999998694
0 0 0.7499999999993416
2 0 0.25
2 0 0.5
2 0 0.75
2 1 0.25
2 1 0.5
2 1 0.75
0 1 0.25
0 1 0.5
0 1 0.75
0 0.3640932128840256 0.2132312167770212
0 0.211042321819565 0.6246662583047012
0 0.6146003733364925 0.7455130020892088
0 0.8080509614600759 0.3756310460435153
0 0.1979210047257832 0.3784328232093713
0 0.4308090314150294 0.4943497273000312
0 0.3712961061748632 0.7832009930521239
0 0.6139924015725831 0.252118497533293
0 0.8112741566738465 0.6144560228267848
0 0.6557453848916055 0.4964136591585666
0 0.1830127018931337 0.1830127018926974
0 0.8169872981078146 0.1830127018922781
0 0.1830127018925748 0.8169872981072488
0 0.8351749060020678 0.8219938049831989
2 0.3640932128840256 0.2132312167770212
2 0.211042321819565 0.6246662583047012
2 0.6146003733364925 0.7455130020892088
2 0.8080509614600759 0.3756310460435153
2 0.1979210047257832 0.3784328232093713
2 0.4308090314150294 0.4943497273000312
2 0.3712961061748632 0.7832009930521239
2 0.6139924015725831 0.252118497533293
2 0.8112741566738465 0.6144560228267848
2 0.6557453848916055 0.4964136591585666
2 0.1830127018931337 0.1830127018926974
2 0.8169872981078146 0.1830127018922781
2 0.1830127018925748 0.8169872981072488
2 0.8351749060020678 0.8219938049831989
1.124999999999322 0 0.7834936490556796
0.6270432544036184 0 0.7846733225346647
0.8749999999977415 0 0.2165063509454878
1.374999999998354 0 0.2165063509466705
1.623940657679185 0 0.7883069887368062
0.3987826273469004 0 0.2113096393798378
0.2398197025497934 0 0.6024672053110217
1.802323440803755 0 0.3591901734172141
0.8753405424004628 0 0.7836902613021209
1.00005675706664 0 0.5776128460476164
1.250009459509692 0 0.5793510019958279
1.124999999999222 0 0.3504809471662975
0.750406758979835 0 0.5795803829494834
0.5047611036371922 0 0.58553969541746
0.6325696956326223 0 0.3664839987735727
1.374825019530532 0 0.7863564896497073
1.501331334975236 0 0.5967920219108034
0.3841061270804563 0 0.7982779202283878
1.776302162617448 0 0.6070591851020586
0.2063741052080153 0 0.3726929458643055
1.639658653685181 0 0.1931114635362638
0.8766066423352122 0 0.4181329051764916
1.124999999997707 0 0.1529496755720005
0.6266322533815234 0 0.154488180946357
1.37071171109707 0 0.4244521602943542
1.81698729810763 0 0.816987298107868
0.1830127018925356 0 0.8169872981071805
0.1830127018918117 0 0.1830127018917754
1.816987298107716 0 0.1830127018921076
1.589453700728816 0 0.3998447601468356
0.397723128144671 0 0.4168085390698785
1.124999999999322 1 0.7834936490556796
0.6270432544036184 1 0.7846733225346647
0.8749999999977415 1 0.2165063509454878
1.374999999998354 1 0.2165063509466705
1.623940657679185 1 0.7883069887368062
0.3987826273469004 1 0.2113096393798378
0.2398197025497934 1 0.6024672053110217
1.802323440803755 1 0.3591901734172141
0.8753405424004628 1 0.7836902613021209
1.00005675706664 1 0.5776128460476164
1.250009459509692 1 0.5793510019958279
1.124999999999222 1 0.3504809471662975
0.750406758979835 1 0.5795803829494834
0.5047611036371922 1 0.58553969541746
0.6325696956326223 1 0.3664839987735727
1.374825019530532 1 0.7863564896497073
1.501331334975236 1 0.5967920219108034
0.3841061270804563 1 0.7982779202283878
1.776302162617448 1 0.6070591851020586
0.2063741052080153 1 0.3726929458643055
1.639658653685181 1 0.1931114635362638
0.8766066423352122 1 0.4181329051764916
1.124999999997707 1 0.1529496755720005
0.6266322533815234 1 0.154488180946357
1.37071171109707 1 0.4244521602943542
1.81698729810763 1 0.816987298107868
0.1830127018925356 1 0.8169872981071805
0.1830127018918117 1 0.1830127018917754
1.816987298107716 1 0.1830127018921076
1.589453700728816 1 0.3998447601468356
0.397723128144671 1 0.4168085390698785
0.8749999999991616 0.7834936490553733 0
1.374999999999126 0.7834936490548335 0
0.6249999999984597 0.2165063509454784 0
1.10530126418026 0.2192791542783071 0
0.3760593423200852 0.7883069887368834 0
1.623940657678827 0.2116930112643939 0
1.745549164788 0.6154080214533207 0
0.1976765591957918 0.3591901734177632 0
1.124999999999081 0.79408642828427 0
1.025993198425508 0.5640533216707057 0
0.7543321997373376 0.5770910812659414 0
0.8750000000001424 0.3504809471649945 0
0.6258985903424961 0.7859798361947434 0
0.4995128765440805 0.5963525928798591 0
1.3749999999986 0.2165063509465369 0
1.547267700715437 0.4156507576329562 0
1.26557989202847 0.4379752493626437 0
0.2237593688341944 0.6070271567475651 0
0.3603413463136668 0.1931114635361575 0
1.613887891831447 0.8027721378897497 0
1.789748108443715 0.3746921228245691 0
0.6300291275823791 0.4240665388992581 0
0.8749999999977416 0.1529496755715059 0
1.258023556469914 0.6419267164388978 0
1.467551367638732 0.6162044219720668 0
0.1830127018921399 0.8169872981078924 0
0.1830127018927106 0.1830127018931106 0
1.816987298107187 0.1830127018926369 0
1.821887411323803 0.833636031868614 0
0.4106177357231808 0.3998075760395933 0
1.056952388983319 0.3897682537029331 0
0.8749999999991616 0.7834936490553733 1
1.374999999999126 0.7834936490548335 1
0.6249999999984597 0.2165063509454784 1
1.10530126418026 0.2192791542783071 1
0.3760593423200852 0.7883069887368834 1
1.623940657678827 0.2116930112643939 1
1.745549164788 0.6154080214533207 1
0.1976765591957918 0.3591901734177632 1
1.124999999999081 0.79408642828427 1
1.025993198425508 0.5640533216707057 1
0.7543321997373376 0.5770910812659414 1
0.8750000000001424 0.3504809471649945 1
0.6258985903424961 0.7859798361947434 1
0.4995128765440805 0.5963525928798591 1
1.3749999999986 0.2165063509465369 1
1.547267700715437 0.4156507576329562 1
1.26557989202847 0.4379752493626437 1
0.2237593688341944 0.6070271567475651 1
0.3603413463136668 0.1931114635361575 1
1.613887891831447 0.8027721378897497 1
1.789748108443715 0.3746921228245691 1
0.6300291275823791 0.4240665388992581 1
0.8749999999977416 0.1529496755715059 1
1.258023556469914 0.6419267164388978 1
1.467551367638732 0.6162044219720668 1
0.1830127018921399 0.8169872981078924 1
0.1830127018927106 0.1830127018931106 1
1.816987298107187 0.1830127018926369 1
1.821887411323803 0.833636031868614 1
0.4106177357231808 0.3998075760395933 1
1.056952388983319 0.3897682537029331 1
1.125587482896947 0.4918525306702409 0.4987609808157404
0.5612037950775296 0.5 0.5
1.566386173862684 0.5555966135099902 0.5649124406267076
0.8461004877309346 0.6590697473956912 0.6586726103603111
1.402225021874202 0.3423072137452805 0.3319100727680405
0.8695517468840502 0.3158445674125308 0.6469431795811448
0.3097218566612895 0.6798588771874421 0.3704013598495383
1.349530083334054 0.6769540757556793 0.3243788491424964
1.356831011548297 0.3121647091224951 0.6634375508265162
0.8976333547240606 0.6735735117634006 0.3219512176465309
0.3162317240987711 0.3233355970759915 0.33840919896807
0.3789699933214882 0.6933908164419371 0.6884083852658367
0.7762937591645644 0.3087488961572929 0.3213561913108153
1.298448676974839 0.6960798354675024 0.6825231317334588
0.3407336169931042 0.3146425404788494 0.679172386108029
1.66407026362068 0.2959639782094373 0.7040360217901529
1.713432443687603 0.3332689113670571 0.3928763324605902
1.690701488283795 0.7021054960121687 0.3058177436580896
1.068501524833706 0.3009433041844043 0.281141079535895
0.5974412833615954 0.7116031892489092 0.289747361325937
1.73206832759881 0.7359747828150101 0.7245384767408984
1.110829637051781 0.3794442177074597 0.7395607448556559
0.6092588841628149 0.3568509291611365 0.7321483931351508
0.6181242473500964 0.757627942922915 0.5543628369809318
0.5209985404247873 0.4616872369415225 0.2397813444577504
1.113788887644705 0.7656459599026002 0.4922448479926704
0.5897785702111311 0.2356299443950266 0.496249903269964
1.137240240263442 0.2307835054940199 0.5246937948875912
1.130356360796266 0.5546844644177922 0.2423542280086823
1.061459852184108 0.7545651990890189 0.7562396819308312
0.616422733247512 0.6131395920520784 0.7694059664780697

CELLS 1217 5513
1 0
1 1
1 2
1 3
1 4
1 5
1 6
1 7
2 0 8
2 8 9
2 9 10
2 10 11
2 11 12
2 12 13
2 13 14
2 14 1
2 1 15
2 15 16
2 16 17
2 17 2
2 2 18
2 18 19
2 19 20
2 20 21
2 21 22
2 22 23
2 23 24
2 24 3
2 3 25
2 25 26
2 26 27
2 27 0
2 4 28
2 28 29
2 29 30
2 30 31
2 31 32
2 32 33
2 33 34
2 34 5
2 5 35
2 35 36
2 36 37
2 37 6
2 6 38
2 38 39
2 39 40
2 40 41
2 41 42
2 42 43
2 43 44
2 44 7
2 7 45
2 45 46
2 46 47
2 47 4
2 0 48
2 48 49
2 49 50
2 50 4
2 1 51
2 51 52
2 52 53
2 53 5
2 2 54
2 54 55
2 55 56
2 56 6
2 3 57
2 57 58
2 58 59
2 59 7
3 27 0 70
3 0 48 70
3 3 25 71
3 57 3 71
3 4 47 72
3 50 4 72
3 45 7 73
3 7 59 73
3 25 26 67
3 25 67 71
3 26 27 60
3 26 60 67
3 60 27 70
3 46 45 62
3 62 45 73
3 47 46 66
3 46 62 66
3 47 66 72
3 48 49 64
3 48 64 70
3 49 50 61
3 49 61 64
3 61 50 72
3 58 57 63
3 63 57 71
3 59 58 68
3 58 63 68
3 59 68 73
3 60 64 65
3 64 60 70
3 60 65 67
3 64 61 65
3 65 61 66
3 66 61 72
3 62 65 66
3 65 62 69
3 62 68 69
3 68 62 73
3 63 67 69
3 67 63 71
3 68 63 69
3 67 65 69
3 1 51 84
3 15 1 84
3 54 2 85
3 2 17 85
3 53 5 86
3 5 35 86
3 6 56 87
3 37 6 87
3 51 52 78
3 51 78 84
3 52 53 75
3 52 75 78
3 75 53 86
3 55 54 77
3 77 54 85
3 56 55 82
3 55 77 82
3 56 82 87
3 16 15 74
3 74 15 84
3 17 16 81
3 16 74 81
3 17 81 85
3 35 36 80
3 35 80 86
3 36 37 76
3 36 76 80
3 76 37 87
3 74 78 79
3 78 74 84
3 74 79 81
3 78 75 79
3 79 75 80
3 80 75 86
3 76 79 80
3 79 76 83
3 76 82 83
3 82 76 87
3 77 81 83
3 81 77 85
3 82 77 83
3 81 79 83
3 0 8 115
3 48 0 115
3 14 1 116
3 1 51 116
3 28 4 114
3 4 50 114
3 5 34 113
3 53 5 113
3 8 9 93
3 8 93 115
3 9 10 111
3 93 9 111
3 10 11 90
3 10 90 111
3 11 12 110
3 90 11 110
3 12 13 91
3 12 91 110
3 13 14 108
3 91 13 108
3 108 14 116
3 29 28 105
3 105 28 114
3 30 29 89
3 89 29 105
3 31 30 96
3 30 89 96
3 32 31 88
3 88 31 96
3 33 32 103
3 32 88 103
3 34 33 92
3 92 33 103
3 34 92 113
3 49 48 107
3 107 48 115
3 50 49 94
3 94 49 107
3 50 94 114
3 51 52 95
3 51 95 116
3 52 53 106
3 95 52 106
3 106 53 113
3 88 96 97
3 88 97 98
3 88 98 103
3 96 89 100
3 100 89 101
3 101 89 105
3 90 99 109
3 99 90 110
3 102 90 109
3 90 102 111
3 91 99 110
3 99 91 112
3 91 108 117
3 112 91 117
3 92 103 104
3 92 104 106
3 92 106 113
3 102 93 111
3 93 102 118
3 93 107 115
3 107 93 118
3 94 101 105
3 101 94 118
3 94 105 114
3 94 107 118
3 95 106 117
3 95 108 116
3 108 95 117
3 97 96 100
3 98 97 99
3 99 97 109
3 97 100 109
3 98 99 112
3 103 98 104
3 104 98 112
3 100 101 102
3 100 102 109
3 102 101 118
3 106 104 117
3 104 112 117
3 18 2 147
3 2 54 147
3 3 24 146
3 57 3 146
3 6 38 144
3 56 6 144
3 44 7 145
3 7 59 145
3 19 18 139
3 139 18 147
3 20 19 122
3 122 19 139
3 21 20 141
3 20 122 141
3 22 21 121
3 121 21 141
3 23 22 142
3 22 121 142
3 24 23 124
3 124 23 142
3 24 124 146
3 38 39 123
3 38 123 144
3 39 40 134
3 123 39 134
3 40 41 119
3 40 119 134
3 41 42 127
3 119 41 127
3 42 43 120
3 42 120 127
3 43 44 136
3 120 43 136
3 136 44 145
3 54 55 126
3 54 126 147
3 55 56 137
3 126 55 137
3 137 56 144
3 58 57 138
3 138 57 146
3 59 58 125
3 125 58 138
3 59 125 145
3 119 127 128
3 119 128 129
3 119 129 134
3 127 120 131
3 131 120 132
3 132 120 136
3 121 130 140
3 130 121 141
3 133 121 140
3 121 133 142
3 122 130 141
3 130 122 143
3 122 139 148
3 143 122 148
3 123 134 135
3 123 135 137
3 123 137 144
3 133 124 142
3 124 133 149
3 124 138 146
3 138 124 149
3 125 132 136
3 132 125 149
3 125 136 145
3 125 138 149
3 126 137 148
3 126 139 147
3 139 126 148
3 128 127 131
3 129 128 130
3 130 128 140
3 128 131 140
3 129 130 143
3 134 129 135
3 135 129 143
3 131 132 133
3 131 133 140
3 133 132 149
3 137 135 148
3 135 143 148
3 0 176 8
3 27 176 0
3 14 177 1
3 1 177 15
3 2 178 18
3 17 178 2
3 24 175 3
3 3 175 25
3 8 168 9
3 8 176 168
3 9 152 10
3 9 168 152
3 10 172 11
3 152 172 10
3 11 153 12
3 11 172 153
3 12 164 13
3 153 164 12
3 13 155 14
3 13 164 155
3 155 177 14
3 18 169 19
3 18 178 169
3 19 151 20
3 19 169 151
3 20 158 21
3 151 158 20
3 21 150 22
3 21 158 150
3 22 162 23
3 150 162 22
3 23 154 24
3 23 162 154
3 154 175 24
3 25 167 26
3 25 175 167
3 26 157 27
3 26 167 157
3 157 176 27
3 15 170 16
3 15 177 170
3 16 156 17
3 16 170 156
3 156 178 17
3 158 159 150
3 159 160 150
3 160 162 150
3 151 173 158
3 169 174 151
3 151 174 173
3 152 171 161
3 161 172 152
3 168 179 152
3 152 179 171
3 153 172 161
3 161 180 153
3 153 166 164
3 153 180 166
3 162 163 154
3 163 167 154
3 167 175 154
3 164 165 155
3 165 170 155
3 170 177 155
3 156 170 165
3 165 174 156
3 156 174 169
3 169 178 156
3 167 179 157
3 168 176 157
3 157 179 168
3 158 173 159
3 159 161 160
3 159 180 161
3 159 173 166
3 166 180 159
3 161 171 160
3 160 163 162
3 160 171 163
3 163 179 167
3 171 179 163
3 164 166 165
3 166 174 165
3 173 174 166
3 4 28 207
3 47 4 207
3 34 5 208
3 5 35 208
3 6 38 209
3 37 6 209
3 44 7 206
3 7 45 206
3 28 29 199
3 28 199 207
3 29 30 183
3 29 183 199
3 30 31 203
3 183 30 203
3 31 32 184
3 31 184 203
3 32 33 195
3 184 32 195
3 33 34 186
3 33 186 195
3 186 34 208
3 38 39 200
3 38 200 209
3 39 40 182
3 39 182 200
3 40 41 189
3 182 40 189
3 41 42 181
3 41 181 189
3 42 43 193
3 181 42 193
3 43 44 185
3 43 185 193
3 185 44 206
3 45 46 198
3 45 198 206
3 46 47 188
3 46 188 198
3 188 47 207
3 35 36 201
3 35 201 208
3 36 37 187
3 36 187 201
3 187 37 209
3 189 181 190
3 190 181 191
3 191 181 193
3 182 189 204
3 200 182 205
3 182 204 205
3 183 192 202
3 192 183 203
3 199 183 210
3 183 202 210
3 184 192 203
3 192 184 211
3 184 195 197
3 184 197 211
3 193 185 194
3 194 185 198
3 198 185 206
3 195 186 196
3 196 186 201
3 201 186 208
3 187 196 201
3 196 187 205
3 187 200 205
3 200 187 209
3 198 188 210
3 199 188 207
3 188 199 210
3 189 190 204
3 190 191 192
3 190 192 211
3 190 197 204
3 197 190 211
3 192 191 202
3 191 193 194
3 191 194 202
3 194 198 210
3 202 194 210
3 195 196 197
3 197 196 205
3 204 197 205
4 200 225 123 232
4 215 221 217 224
4 200 134 123 225
4 215 213 221 224
4 224 236 111 238
4 215 217 213 224
4 134 200 182 225
4 65 218 223 226
4 212 217 221 224
4 93 236 222 238
4 165 216 228 229
4 93 111 236 238
4 174 219 216 229
4 212 217 215 221
4 214 220 205 225
4 218 213 223 226
4 218 222 213 226
4 65 218 69 223
4 104 216 220 228
4 65 222 218 226
4 135 219 214 225
4 104 220 227 228
4 196 227 214 232
4 83 82 77 229
4 83 82 229 232
4 214 219 148 229
4 174 216 165 229
4 170 228 81 229
4 214 229 148 232
4 200 205 225 232
4 152 111 224 236
4 137 77 82 229
4 135 148 214 219
4 182 200 205 225
4 216 214 228 229
4 137 229 82 232
4 196 205 214 220
4 155 216 108 228
4 216 219 214 229
4 141 221 158 240
4 93 111 152 236
4 168 222 93 236
4 135 123 225 232
4 214 216 212 219
4 141 158 219 240
4 161 221 224 240
4 212 216 214 220
4 161 224 230 240
4 214 225 205 232
4 134 135 123 225
4 135 214 148 232
4 192 217 215 233
4 83 214 79 232
4 83 229 214 232
4 160 224 221 236
4 196 187 227 232
4 193 120 215 242
4 96 203 217 234
4 122 219 169 229
4 205 196 214 232
4 196 220 214 227
4 143 219 135 225
4 218 222 167 236
4 135 225 214 232
4 198 62 223 226
4 102 224 111 238
4 62 65 223 226
4 214 219 212 225
4 104 117 216 228
4 137 126 77 229
4 170 74 81 228
4 130 237 221 240
4 203 96 217 233
4 141 130 221 240
4 93 102 111 238
4 212 220 214 225
4 187 76 201 227
4 205 220 197 225
4 193 120 181 215
4 127 181 120 215
4 187 76 227 232
4 215 217 191 242
4 141 219 130 240
4 94 222 61 226
4 219 237 130 240
4 217 234 191 242
4 69 218 68 223
4 169 122 151 219
4 88 217 96 233
4 160 221 231 236
4 214 220 216 228
4 170 81 156 229
4 192 215 190 233
4 201 76 80 227
4 139 122 169 229
4 152 168 93 236
4 214 227 220 228
4 66 198 188 226
4 167 218 67 222
4 62 65 69 223
4 68 218 125 223
4 157 167 60 222
4 79 227 214 228
4 94 64 61 222
4 92 195 186 227
4 165 216 155 228
4 195 103 220 227
4 135 143 148 219
4 195 92 103 227
4 136 120 193 223
4 145 73 68 223
4 161 221 160 224
4 88 184 220 233
4 161 159 221 240
4 210 226 223 242
4 109 224 217 239
4 103 88 195 220
4 177 155 108 228
4 192 191 215 217
4 164 91 216 230
4 137 148 229 232
4 193 185 136 223
4 64 94 107 222
4 210 198 223 226
4 91 108 155 216
4 193 223 120 242
4 170 155 177 228
4 193 215 181 242
4 215 221 213 235
4 161 230 180 240
4 104 216 112 220
4 140 221 215 235
4 197 225 220 233
4 225 233 204 241
4 195 88 184 220
4 199 105 226 234
4 116 177 108 228
4 109 230 224 239
4 217 233 88 239
4 210 234 226 242
4 91 155 164 216
4 174 169 219 229
4 222 226 118 238
4 205 187 196 232
4 117 108 216 228
4 164 110 91 230
4 140 231 221 235
4 165 155 170 228
4 84 177 116 228
4 140 215 221 237
4 149 223 218 235
4 120 235 215 242
4 179 167 222 236
4 198 66 62 226
4 192 191 217 234
4 101 226 105 234
4 153 110 164 230
4 169 151 174 219
4 89 101 105 234
4 63 68 69 218
4 191 190 192 215
4 83 79 76 232
4 97 217 88 239
4 93 222 118 238
4 73 145 206 223
4 140 215 131 235
4 150 142 162 231
4 141 121 158 221
4 60 167 67 222
4 99 216 230 239
4 196 197 205 220
4 146 175 154 218
4 89 105 183 234
4 94 118 222 226
4 219 225 143 237
4 179 167 157 222
4 161 180 159 240
4 215 190 233 241
4 127 120 131 215
4 221 231 213 235
4 166 216 174 219
4 210 188 198 226
4 65 61 222 226
4 150 158 121 221
4 131 215 120 235
4 88 97 96 217
4 199 183 105 234
4 161 159 160 221
4 112 216 99 239
4 112 104 117 216
4 189 119 134 225
4 190 204 233 241
4 125 145 68 223
4 189 134 182 225
4 140 128 215 237
4 99 216 91 230
4 216 219 166 240
4 112 220 216 239
4 148 219 122 229
4 74 170 177 228
4 196 187 201 227
4 223 235 120 242
4 88 233 220 239
4 154 218 163 231
4 192 217 203 234
4 212 215 233 241
4 195 220 184 233
4 75 106 227 228
4 146 71 175 218
4 150 221 121 231
4 160 171 224 236
4 166 164 216 230
4 158 173 151 219
4 194 210 223 242
4 149 132 223 235
4 140 133 231 235
4 73 206 62 223
4 124 146 154 218
4 163 218 167 236
4 158 173 219 240
4 80 76 79 227
4 189 119 225 241
4 149 125 218 223
4 197 204 225 233
4 154 124 218 231
4 71 167 175 218
4 217 100 234 238
4 218 231 149 235
4 104 220 103 227
4 84 74 177 228
4 121 142 150 231
4 135 148 137 232
4 104 103 92 227
4 163 231 218 236
4 68 73 62 223
4 100 89 234 238
4 129 143 225 237
4 215 217 212 233
4 101 118 226 238
4 204 205 197 225
4 107 94 118 222
4 75 78 106 228
4 95 84 116 228
4 192 203 217 233
4 193 185 223 242
4 220 225 212 233
4 213 224 217 238
4 148 122 139 229
4 81 228 79 229
4 112 91 99 216
4 140 128 131 215
4 69 68 62 223
4 167 163 154 218
4 65 61 64 222
4 106 78 95 228
4 67 218 65 222
4 137 148 126 229
4 195 220 196 227
4 97 109 217 239
4 212 233 225 241
4 192 190 211 233
4 101 226 234 238
4 95 78 84 228
4 93 118 102 238
4 81 79 83 229
4 207 72 188 226
4 158 221 159 240
4 98 88 220 239
4 114 61 72 226
4 91 117 108 216
4 176 70 115 222
4 176 157 70 222
4 62 66 65 226
4 216 166 230 240
4 186 195 196 227
4 154 175 167 218
4 114 72 207 226
4 95 116 108 228
4 110 99 91 230
4 212 221 215 237
4 183 192 203 234
4 150 160 221 231
4 156 174 165 229
4 62 206 198 223
4 132 120 223 235
4 103 98 88 220
4 166 219 173 240
4 120 136 132 223
4 192 184 203 233
4 141 130 121 221
4 115 168 176 222
4 182 189 40 134
4 119 40 189 134
4 212 219 216 240
4 166 153 164 230
4 166 165 174 216
4 164 155 165 216
4 79 75 227 228
4 111 172 152 224
4 158 150 159 221
4 194 210 198 223
4 213 226 222 238
4 71 67 167 218
4 141 122 130 219
4 173 166 174 219
4 213 222 218 236
4 181 42 120 193
4 120 127 42 181
4 90 172 111 224
4 216 220 212 239
4 101 234 89 238
4 92 195 33 186
4 129 143 135 225
4 94 61 114 226
4 179 222 168 236
4 195 92 33 103
4 150 162 160 231
4 131 128 127 215
4 94 101 118 226
4 112 98 220 239
4 154 162 124 231
4 90 172 224 230
4 105 114 199 226
4 212 225 219 237
4 120 43 136 193
4 43 185 136 193
4 192 202 191 234
4 149 132 125 223
4 88 195 32 103
4 124 149 218 231
4 181 215 127 241
4 161 160 171 224
4 218 223 213 235
4 215 212 237 241
4 113 86 75 227
4 190 215 181 241
4 212 216 230 240
4 200 134 39 123
4 188 72 66 226
4 70 157 60 222
4 182 134 39 200
4 199 114 207 226
4 213 217 234 238
4 162 142 124 231
4 115 93 168 222
4 152 179 168 236
4 127 215 128 241
4 149 125 138 218
4 216 212 230 239
4 195 197 220 233
4 178 156 85 229
4 190 191 181 215
4 211 184 192 233
4 122 148 143 219
4 172 161 224 230
4 210 199 226 234
4 172 110 153 230
4 128 215 237 241
4 184 195 32 88
4 63 138 58 68
4 189 182 204 225
4 106 95 117 228
4 130 140 221 237
4 197 190 204 233
4 106 113 75 227
4 109 90 224 230
4 13 91 108 155
4 60 67 65 222
4 181 215 191 242
4 130 219 143 237
4 126 85 77 229
4 171 152 224 236
4 218 213 231 235
4 139 169 178 229
4 100 97 109 217
4 86 113 208 227
4 91 13 164 155
4 90 110 172 230
4 208 92 186 227
4 197 196 195 220
4 168 157 176 222
4 99 230 109 239
4 124 138 146 218
4 55 82 137 77
4 112 117 91 216
4 29 89 105 183
4 178 85 147 229
4 20 141 158 151
4 80 79 75 227
4 31 96 203 88
4 191 234 202 242
4 19 169 122 151
4 133 149 231 235
4 69 65 67 218
4 208 113 92 227
4 187 205 200 232
4 117 95 108 228
4 225 237 212 241
4 185 198 206 223
4 30 96 89 203
4 195 184 197 233
4 137 55 77 126
4 104 112 98 220
4 163 167 179 236
4 130 140 121 221
4 85 126 147 229
4 121 133 142 231
4 189 225 204 241
4 147 139 178 229
4 105 199 29 183
4 87 76 209 232
4 145 125 136 223
4 65 66 61 226
4 169 139 19 122
4 213 222 236 238
4 122 143 130 219
4 203 184 31 88
4 193 181 191 242
4 22 162 150 142
4 194 223 185 242
4 96 97 100 217
4 166 180 230 240
4 140 131 133 235
4 81 156 16 170
4 115 107 93 222
4 193 194 185 242
4 102 109 224 238
4 187 36 201 76
4 199 207 188 226
4 141 20 122 151
4 174 156 169 229
4 107 64 49 94
4 119 129 134 225
4 94 64 49 61
4 170 16 81 74
4 213 218 231 236
4 160 159 150 221
4 165 166 164 216
4 125 58 138 68
4 66 72 61 226
4 78 52 106 95
4 183 30 89 203
4 100 101 89 238
4 52 106 75 78
4 166 180 153 230
4 36 80 201 76
4 210 183 199 234
4 85 156 81 229
4 105 101 94 226
4 129 225 119 241
4 138 124 149 218
4 157 26 60 167
4 213 236 224 238
4 105 94 114 226
4 157 168 179 222
4 74 79 81 228
4 71 63 67 218
4 135 134 129 225
4 215 235 213 242
4 129 237 225 241
4 172 161 152 224
4 160 231 163 236
4 154 163 162 231
4 121 22 150 142
4 102 100 109 238
4 93 107 118 222
4 161 171 152 224
4 200 144 209 232
4 74 84 78 228
4 219 212 237 240
4 102 90 111 224
4 185 194 198 223
4 213 234 226 238
4 200 123 144 232
4 221 237 212 240
4 127 41 181 241
4 66 198 46 188
4 87 37 209 76
4 109 99 90 230
4 205 204 182 225
4 136 125 132 223
4 111 9 93 152
4 79 78 75 228
4 91 164 12 110
4 98 103 104 220
4 164 153 12 110
4 209 76 187 232
4 124 133 149 231
4 87 144 82 232
4 41 127 119 241
4 86 80 75 227
4 64 70 60 222
4 169 156 178 229
4 211 190 197 233
4 9 168 93 152
4 128 237 129 241
4 217 212 233 239
4 183 202 192 234
4 83 77 81 229
4 128 129 119 241
4 137 123 135 232
4 186 201 208 227
4 173 174 151 219
4 199 188 210 226
4 92 106 104 227
4 167 26 60 67
4 189 181 41 241
4 180 161 153 230
4 172 153 161 230
4 65 64 60 222
4 162 163 160 231
4 156 178 85 17
4 97 99 109 239
4 110 90 99 230
4 186 196 201 227
4 223 213 235 242
4 41 119 189 241
4 102 109 90 224
4 137 82 144 232
4 63 69 67 218
4 37 187 209 76
4 106 92 113 227
4 220 233 212 239
4 133 132 149 235
4 153 172 11 110
4 82 83 76 232
4 62 198 46 66
4 200 144 38 209
4 206 73 62 45
4 77 85 81 229
4 142 133 124 231
4 171 179 152 236
4 152 111 10 172
4 172 90 11 110
4 144 200 38 123
4 189 204 190 241
4 126 139 147 229
4 111 90 10 172
4 206 185 136 44
4 171 160 163 236
4 186 34 92 208
4 144 87 209 232
4 184 211 197 233
4 98 97 88 239
4 136 145 206 44
4 34 113 92 208
4 35 86 208 201
4 129 130 143 237
4 156 85 81 17
4 158 159 173 240
4 154 24 175 146
4 139 126 148 229
4 175 25 167 71
4 56 87 144 82
4 112 99 98 239
4 183 210 202 234
4 132 131 120 235
4 45 62 206 198
4 146 138 57 63
4 127 128 119 241
4 74 78 79 228
4 146 154 24 124
4 86 75 53 113
4 115 48 107 64
4 57 71 146 63
4 145 59 68 73
4 189 190 181 241
4 130 128 140 237
4 48 115 70 64
4 200 209 187 232
4 75 106 53 113
4 86 35 80 201
4 77 126 54 85
4 94 50 114 61
4 50 72 114 61
4 82 144 56 137
4 71 25 167 67
4 170 15 74 177
4 59 68 125 145
4 169 18 139 178
4 78 51 95 84
4 84 74 15 177
4 207 47 188 72
4 70 176 27 157
4 147 54 126 85
4 116 95 51 84
4 134 40 182 39
4 114 199 28 105
4 43 120 42 193
4 166 159 180 240
4 14 108 177 155
4 87 82 76 232
4 81 156 17 16
4 34 92 33 186
4 187 37 36 76
4 127 42 181 41
4 41 40 189 119
4 131 132 133 235
4 32 31 184 88
4 147 139 18 178
4 108 116 14 177
4 28 207 199 114
4 60 70 27 157
4 44 185 136 43
4 66 188 47 72
4 39 38 200 123
4 118 101 102 238
4 159 166 173 240
4 122 20 19 151
4 144 123 137 232
4 130 129 128 237
4 29 30 89 183
4 176 8 168 115
4 93 168 8 115
4 195 33 32 103
4 98 99 97 239
4 49 50 94 61
4 101 100 102 238
4 75 106 52 53
4 150 21 22 121
4 114 4 207 72
4 5 86 113 208
4 71 175 3 146
4 1 116 84 177
4 70 0 176 115
4 154 23 24 124
4 25 26 167 67
4 85 147 2 178
4 73 145 7 206
4 68 125 58 59
4 191 194 193 242
4 198 45 62 46
4 87 209 6 144
4 56 82 137 55
4 138 57 63 58
4 164 12 13 91
4 108 14 13 155
4 55 77 126 54
4 48 107 64 49
4 52 78 51 95
4 105 199 28 29
4 35 80 201 36
4 16 170 15 74
4 19 18 139 169
4 191 202 194 242
4 8 9 168 93
4 27 26 60 157
4 46 66 188 47
4 208 5 86 35
4 84 15 1 177
4 4 47 207 72
4 28 4 207 114
4 116 51 1 84
4 115 70 0 48
4 147 2 54 85
4 206 145 7 44
4 176 27 0 70
4 3 71 146 57
4 34 5 113 208
4 116 1 14 177
4 203 30 96 31
4 162 22 23 142
4 0 8 176 115
4 24 3 175 146
4 163 179 171 236
4 86 53 5 113
4 209 38 6 144
4 147 18 2 178
4 153 11 12 110
4 21 20 141 158
4 72 114 4 50
4 111 10 9 152
4 6 87 144 56
4 175 3 25 71
4 90 11 10 172
4 178 2 85 17
4 7 73 206 45
4 6 37 209 87
4 7 59 145 73
4 229 170 165 156
4 229 165 170 228
4 240 224 212 221
4 240 212 224 230
4 96 234 100 89
4 100 234 96 217
4 236 221 213 224
4 236 213 221 231
4 232 79 227 214
4 232 227 79 76
4 89 203 234 183
4 234 203 89 96
4 229 79 214 228
4 229 214 79 83
4 242 217 213 215
4 242 213 217 234
4 228 104 106 227
4 228 106 104 117
4 239 224 212 230
4 239 212 224 217
4 242 226 213 234
4 242 213 226 223
4 141 151 219 158
4 219 151 141 122
4 68 138 218 63
4 68 218 138 125
4 231 140 121 133
4 231 121 140 221
4 158 121 21 150
4 158 21 121 141
4 238 109 217 100
4 238 217 109 224
4 146 63 218 138
4 218 63 146 71
4 203 88 233 184
4 233 88 203 96
4 124 162 23 142
4 124 23 162 154
4 201 86 227 80
4 201 227 86 208
4 242 210 202 194
4 242 202 210 234
4 206 136 223 145
4 206 223 136 185
4 64 115 222 107
4 64 222 115 70

CELL_TYPES 1217
1
1
1
1
1
1
1
1
3
3
3
3
3
3
3
3
3
3
3
3
3
3
3
3
3
3
3
3
3
3
3
3
3
3
3
3
3
3
3
3
3
3
3
3
3
3
3
3
3
3
3
3
3
3
3
3
3
3
3
3
3
3
3
3
3
3
3
3
3
3
3
3
5
5
5
5
5
5
5
5
5
5
5
5
5
5
5
5
5
5
5
5
5
5
5
5
5
5
5
5
5
5
5
5
5
5
5
5
5
5
5
5
5
5
5
5
5
5
5
5
5
5
5
5
5
5
5
5
5
5
5
5
5
5
5
5
5
5
5
5
5
5
5
5
5
5
5
5
5
5
5
5
5
5
5
5
5
5
5
5
5
5
5
5
5
5
5
5
5
5
5
5
5
5
5
5
5
5
5
5
5
5
5
5
5
5
5
5
5
5
5
5
5
5
5
5
5
5
5
5
5
5
5
5
5
5
5
5
5
5
5
5
5
5
5
5
5
5
5
5
5
5
5
5
5
5
5
5
5
5
5
5
5
5
5
5
5
5
5
5
5
5
5
5
5
5
5
5
5
5
5
5
5
5
5
5
5
5
5
5
5
5
5
5
5
5
5
5
5
5
5
5
5
5
5
5
5
5
5
5
5
5
5
5
5
5
5
5
5
5
5
5
5
5
5
5
5
5
5
5
5
5
5
5
5
5
5
5
5
5
5
5
5
5
5
5
5
5
5
5
5
5
5
5
5
5
5
5
5
5
5
5
5
5
5
5
5
5
5
5
5
5
5
5
5
5
5
5
5
5
5
5
5
5
5
5
5
5
5
5
5
5
5
5
5
5
5
5
5
5
5
5
5
5
5
5
5
5
5
5
5
5
5
5
5
5
5
5
5
5
5
5
5
5
5
5
5
5
5
5
5
5
5
5
5
5
5
5
5
5
5
5
5
5
5
5
5
5
5
5
5
5
5
5
5
5
5
5
5
5
5
5
5
5
5
5
5
5
5
5
5
5
5
5
5
5
5
5
5
5
5
5
5
5
5
5
5
5
5
5
5
5
5
5
5
5
5
5
5
5
5
5
5
5
5
5
5
5
5
5
5
5
5
5
5
5
5
5
5
5
5
5
10
10
10
10
10
10
10
10
10
10
10
10
10
10
10
10
10
10
10
10
10
10
10
10
10
10
10
10
10
10
10
10
10
10
10
10
10
10
10
10
10
10
10
10
10
10
10
10
10
10
10
10
10
10
10
10
10
10
10
10
10
10
10
10
10
10
10
10
10
10
10
10
10
10
10
10
10
10
10
10
10
10
10
10
10
10
10
10
10
10
10
10
10
10
10
10
10
10
10
10
10
10
10
10
10
10
10
10
10
10
10
10
10
10
10
10
10
10
10
10
10
10
10
10
10
10
10
10
10
10
10
10
10
10
10
10
10
10
10
10
10
10
10
10
10
10
10
10
10
10
10
10
10
10
10
10
10
10
10
10
10
10
10
10
10
10
10
10
10
10
10
10
10
10
10
10
10
10
10
10
10
10
10
10
10
10
10
10
10
10
10
10
10
10
10
10
10
10
10
10
10
10
10
10
10
10
10
10
10
10
10
10
10
10
10
10
10
10
10
10
10
10
10
10
10
10
10
10
10
10
10
10
10
10
10
10
10
10
10
10
10
10
10
10
10
10
10
10
10
10
10
10
10
10
10
10
10
10
10
10
10
10
10
10
10
10
10
10
10
10
10
10
10
10
10
10
10
10
10
10
10
10
10
10
10
10
10
10
10
10
10
10
10
10
10
10
10
10
10
10
10
10
10
10
10
10
10
10
10
10
10
10
10
10
10
10
10
10
10
10
10
10
10
10
10
10
10
10
10
10
10
10
10
10
10
10
10
10
10
10
10
10
10
10
10
10
10
10
10
10
10
10
10
10
10
10
10
10
10
10
10
10
10
10
10
10
10
10
10
10
10
10
10
10
10
10
10
10
10
10
10
10
10
10
10
10
10
10
10
10
10
10
10
10
10
10
10
10
10
10
10
10
10
10
10
10
10
10
10
10
10
10
10
10
10
10
10
10
10
10
10
10
10
10
10
10
10
10
10
10
10
10
10
10
10
10
10
10
10
10
10
10
10
10
10
10
10
10
10
10
10
10
10
10
10
10
10
10
10
10
10
10
10
10
10
10
10
10
10
10
10
10
10
10
10
10
10
10
10
10
10
10
10
10
10
10
10
10
10
10
10
10
10
10
10
10
10
10
10
10
10
10
10
10
10
10
10
10
10
10
10
10
10
10
10
10
10
10
10
10
10
10
10
10
10
10
10
10
10
10
10
10
10
10
10
10
10
10
10
10
10
10
10
10
10
10
10
10
10
10
10
10
10
10
10
10
10
10
10
10
10
10
10
10
10
10
10
10
10
10
10
10
10
10
10
10
10
10
10
10
10
10
10
10
10
10
10
10
10
10
10
10
10
10
10
10
10
10
10
10
10
10
10
10
10
10
10
10
10
10
10
10
10
10
10
10
10
10
10
10
10
10
10
10
10
10
10
10
10
10
10
10
10
10
10
10
10
10
10
10
10
10
10
10
10
10
10
10
10
10
10
10
10
10
10
10
10
10
10
10
10
10
10
10
10
10
10
10
10
10
10
10
10
10
10
10
10
10
10
10
10
10
10
10
10
10
10
10
10
10
10
10
10
10
10
10
10
10
10
10
10
10
10
10
10
10
10
10
10
10
10
10
10
10
10
10
10
10
10
10
10
10
10
10
10

CELL_DATA 1217
SCALARS CellEntityIds int 1
LOOKUP_TABLE default
-1
-1
-1
-1
-1
-1
-1
-1
-1
-1
-1
-1
-1
-1
-1
-1
-1
-1
-1
-1
-1
-1
-1
-1
-1
-1
-1
-1
-1
-1
-1
-1
-1
-1
-1
-1
-1
-1
-1
-1
-1
-1
-1
-1
-1
-1
-1
-1
-1
-1
-1
-1
-1
-1
-1
-1
-1
-1
-1
-1
-1
-1
-1
-1
-1
-1
-1
-1
-1
-1
-1
-1
1
1
1
1
1
1
1
1
1
1
1
1
1
1
1
1
1
1
1
1
1
1
1
1
1
1
1
1
1
1
1
1
1
1
1
1
1
1
1
1
1
1
2
2
2
2
2
2
2
2
2
2
2
2
2
2
2
2
2
2
2
2
2
2
2
2
2
2
2
2
2
2
2
2
2
2
2
2
2
2
2
2
2
2
3
3
3
3
3
3
3
3
3
3
3
3
3
3
3
3
3
3
3
3
3
3
3
3
3
3
3
3
3
3
3
3
3
3
3
3
3
3
3
3
3
3
3
3
3
3
3
3
3
3
3
3
3
3
3
3
3
3
3
3
3
3
3
3
3
3
3
3
3
3
3
3
3
3
3
3
3
3
3
3
3
3
3
3
4
4
4
4
4
4
4
4
4
4
4
4
4
4
4
4
4
4
4
4
4
4
4
4
4
4
4
4
4
4
4
4
4
4
4
4
4
4
4
4
4
4
4
4
4
4
4
4
4
4
4
4
4
4
4
4
4
4
4
4
4
4
4
4
4
4
4
4
4
4
4
4
4
4
4
4
4
4
4
4
4
4
4
4
5
5
5
5
5
5
5
5
5
5
5
5
5
5
5
5
5
5
5
5
5
5
5
5
5
5
5
5
5
5
5
5
5
5
5
5
5
5
5
5
5
5
5
5
5
5
5
5
5
5
5
5
5
5
5
5
5
5
5
5
5
5
5
5
5
5
5
5
5
5
5
5
5
5
5
5
5
5
5
5
5
5
5
5
6
6
6
6
6
6
6
6
6
6
6
6
6
6
6
6
6
6
6
6
6
6
6
6
6
6
6
6
6
6
6
6
6
6
6
6
6
6
6
6
6
6
6
6
6
6
6
6
6
6
6
6
6
6
6
6
6
6
6
6
6
6
6
6
6
6
6
6
6
6
6
6
6
6
6
6
6
6
6
6
6
6
6
6
7
7
7
7
7
7
7
7
7
7
7
7
7
7
7
7
7
7
7
7
7
7
7
7
7
7
7
7
7
7
7
7
7
7
7
7
7
7
7
7
7
7
7
7
7
7
7
7
7
7
7
7
7
7
7
7
7
7
7
7
7
7
7
7
7
7
7
7
7
7
7
7
7
7
7
7
7
7
7
7
7
7
7
7
7
7
7
7
7
7
7
7
7
7
7
7
7
7
7
7
7
7
7
7
7
7
7
7
7
7
7
7
7
7
7
7
7
7
7
7
7
7
7
7
7
7
7
7
7
7
7
7
7
7
7
7
7
7
7
7
7
7
7
7
7
7
7
7
7
7
7
7
7
7
7
7
7
7
7
7
7
7
7
7
7
7
7
7
7
7
7
7
7
7
7
7
7
7
7
7
7
7
7
7
7
7
7
7
7
7
7
7
7
7
7
7
7
7
7
7
7
7
7
7
7
7
7
7
7
7
7
7
7
7
7
7
7
7
7
7
7
7
7
7
7
7
7
7
7
7
7
7
7
7
7
7
7
7
7
7
7
7
7
7
7
7
7
7
7
7
7
7
7
7
7
7
7
7
7
7
7
7
7
7
7
7
7
7
7
7
7
7
7
7
7
7
7
7
7
7
7
7
7
7
7
7
7
7
7
7
7
7
7
7
7
7
7
7
7
7
7
7
7
7
7
7
7
7
7
7
7
7
7
7
7
7
7
7
7
7
7
7
7
7
7
7
7
7
7
7
7
7
7
7
7
7
7
7
7
7
7
7
7
7
7
7
7
7
7
7
7
7
7
7
7
7
7
7
7
7
7
7
7
7
7
7
7
7
7
7
7
7
7
7
7
7
7
7
7
7
7
7
7
7
7
7
7
7
7
7
7
7
7
7
7
7
7
7
7
7
7
7
7
7
7
7
7
7
7
7
7
7
7
7
7
7
7
7
7
7
7
7
7
7
7
7
7
7
7
7
7
7
7
7
7
7
7
7
7
7
7
7
7
7
7
7
7
7
7
7
7
7
7
7
7
7
7
7
7
7
7
7
7
7
7
7
7
7
7
7
7
7
7
7
7
7
7
7
7
7
7
7
7
7
7
7
7
7
7
7
7
7
7
7
7
7
7
7
7
7
7
7
7
7
7
7
7
7
7
7
7
7
7
7
7
7
7
7
7
7
7
7
7
7
7
7
7
7
7
7
7
7
7
7
7
7
7
7
7
7
7
7
7
7
7
7
7
7
7
7
7
7
7
7
7
7
7
7
7
7
7
7
7
7
7
7
7
7
7
7
7
7
7
7
7
7
7
7
7
7
7
7
7
7
7
7
7
7
7
7
7
7
7
7
7
7
7
7
7
7
7
7
7
7
7
7
7
7
7
7
7
7
7
7
7
7
7
7
7
7
7
7
7
7
7
7
7
7
7
7
7
7
7
7
7
7
7
7
7
7
7
7
7
7
7
7
7
7
7
7
7
7
7
7
7
7
7
7
7
7
7
7
7
7
7
7
7
7
7
7
7
7
7
7
7
7
7
7
7
7
7
7
7
7
7
7
7
7
7
7
7
7
7
7
7
7
7
7
7
7
7
7
7
7
7
7
7
7
7
7
7
7
7
7
7
7
7
7
7
7
7
7
7
7
7
