# vtk DataFile Version 2.0
periodic_box_1x025x025_split_refined, Created by Gmsh
ASCII
DATASET UNSTRUCTURED_GRID
POINTS 38 double
0 0 0
1 0 0
1 0.25 0
0 0.25 0
0 0 0.25
1 0 0.25
1 0.25 0.25
0 0.25 0.25
0.2499999999994121 0 0
0.499999999998694 0 0
0.7499999999993416 0 0
0.75 0.25 0
0.5 0.25 0
0.25 0.25 0
0.25 0 0.25
0.5 0 0.25
0.75 0 0.25
0.75 0.25 0.25
0.5 0.25 0.25
0.25 0.25 0.25
0 0.125 0.125
1 0.125 0.125
0.6249999999990178 0 0.1250000000003292
0.3749999999994716 0 0.1250000000000548
0.124999999999706 0 0.125
0.8749999999998354 0 0.125
0.6249999999990178 0.25 0.1250000000003292
0.3749999999994716 0.25 0.1250000000000548
0.124999999999706 0.25 0.125
0.8749999999998354 0.25 0.125
0.3749999999994716 0.1249999999999402 0
0.124999999999706 0.125000000000294 0
0.8749999999996708 0.125 0
0.6249999999990178 0.124999999999347 0
0.3749999999994716 0.1249999999999402 0.25
0.124999999999706 0.125000000000294 0.25
0.8749999999996708 0.125 0.25
0.6249999999990178 0.124999999999347 0.25

CELLS 187 791
1 0
1 1
1 2
1 3
1 4
1 5
1 6
1 7
2 0 8
2 8 9
2 9 10
2 10 1
2 1 2
2 2 11
2 11 12
2 12 13
2 13 3
2 3 0
2 4 14
2 14 15
2 15 16
2 16 5
2 5 6
2 6 17
2 17 18
2 18 19
2 19 7
2 7 4
2 0 4
2 1 5
2 2 6
2 3 7
3 3 0 20
3 0 4 20
3 7 3 20
3 4 7 20
3 2 1 21
3 1 5 21
3 6 2 21
3 5 6 21
3 4 0 24
3 0 8 24
3 1 5 25
3 10 1 25
3 14 4 24
3 5 16 25
3 8 9 23
3 8 23 24
3 9 10 22
3 9 22 23
3 10 16 22
3 16 10 25
3 15 14 23
3 23 14 24
3 16 15 22
3 22 15 23
3 2 6 29
3 11 2 29
3 7 3 28
3 3 13 28
3 6 17 29
3 19 7 28
3 12 11 26
3 11 17 26
3 17 11 29
3 13 12 27
3 12 26 27
3 13 27 28
3 17 18 26
3 18 19 27
3 26 18 27
3 27 19 28
3 3 31 0
3 0 31 8
3 1 32 2
3 10 32 1
3 2 32 11
3 13 31 3
3 8 30 9
3 8 31 30
3 9 33 10
3 30 33 9
3 11 32 10
3 10 33 11
3 11 33 12
3 12 30 13
3 12 33 30
3 30 31 13
3 7 4 35
3 4 14 35
3 5 6 36
3 16 5 36
3 6 17 36
3 19 7 35
3 14 15 34
3 14 34 35
3 15 16 37
3 34 15 37
3 17 16 36
3 16 17 37
3 17 18 37
3 18 19 34
3 18 34 37
3 34 19 35
4 25 29 16 36
4 29 25 16 32
4 29 16 36 17
4 29 16 17 32
4 11 29 17 32
4 32 25 16 10
4 11 17 16 32
4 10 11 16 32
4 22 26 16 33
4 26 22 16 37
4 31 30 28 8
4 28 31 8 35
4 30 28 8 27
4 24 34 8 35
4 23 24 34 8
4 27 8 30 34
4 34 8 30 23
4 35 31 8 24
4 27 28 8 34
4 34 28 8 35
4 26 16 17 37
4 26 16 33 17
4 17 26 11 33
4 34 37 22 26
4 26 22 34 33
4 26 34 27 33
4 11 16 17 33
4 9 34 23 22
4 30 33 27 9
4 33 16 22 10
4 27 30 9 34
4 34 30 9 23
4 11 10 16 33
4 24 23 34 14
4 28 27 19 34
4 24 34 35 14
4 30 28 27 13
4 34 19 28 35
4 30 31 28 13
4 22 9 34 33
4 9 27 34 33
4 15 34 37 22
4 37 34 18 26
4 12 26 27 33
4 18 34 27 26
4 15 23 34 22
4 30 33 12 27
4 29 36 25 21
4 29 25 32 21
4 10 32 25 1
4 6 29 2 21
4 5 36 6 21
4 36 17 6 29
4 11 2 29 32
4 5 25 16 36
4 21 32 2 1
4 21 5 25 1
4 29 6 36 21
4 32 2 29 21
4 36 5 25 21
4 25 32 21 1
4 24 35 31 20
4 35 28 31 20
4 0 31 3 20
4 0 4 24 20
4 3 28 7 20
4 7 35 4 20
4 22 9 33 10
4 18 17 37 26
4 16 15 37 22
4 12 11 26 33
4 31 13 3 28
4 19 7 28 35
4 14 23 34 15
4 35 4 24 14
4 27 19 34 18
4 30 13 27 12
4 0 8 31 24
4 8 9 30 23
4 24 31 0 20
4 24 4 35 20
4 28 3 31 20
4 35 7 28 20

CELL_TYPES 187
1
1
1
1
1
1
1
1
3
3
3
3
3
3
3
3
3
3
3
3
3
3
3
3
3
3
3
3
3
3
3
3
5
5
5
5
5
5
5
5
5
5
5
5
5
5
5
5
5
5
5
5
5
5
5
5
5
5
5
5
5
5
5
5
5
5
5
5
5
5
5
5
5
5
5
5
5
5
5
5
5
5
5
5
5
5
5
5
5
5
5
5
5
5
5
5
5
5
5
5
5
5
5
5
10
10
10
10
10
10
10
10
10
10
10
10
10
10
10
10
10
10
10
10
10
10
10
10
10
10
10
10
10
10
10
10
10
10
10
10
10
10
10
10
10
10
10
10
10
10
10
10
10
10
10
10
10
10
10
10
10
10
10
10
10
10
10
10
10
10
10
10
10
10
10
10
10
10
10
10
10
10
10
10
10
10
10

CELL_DATA 187
SCALARS CellEntityIds int 1
LOOKUP_TABLE default
-1
-1
-1
-1
-1
-1
-1
-1
-1
-1
-1
-1
-1
-1
-1
-1
-1
-1
-1
-1
-1
-1
-1
-1
-1
-1
-1
-1
-1
-1
-1
-1
1
1
1
1
2
2
2
2
3
3
3
3
3
3
3
3
3
3
3
3
3
3
3
3
4
4
4
4
4
4
4
4
4
4
4
4
4
4
4
4
5
5
5
5
5
5
5
5
5
5
5
5
5
5
5
5
6
6
6
6
6
6
6
6
6
6
6
6
6
6
6
6
7
7
7
7
7
7
7
7
7
7
7
7
7
7
7
7
7
7
7
7
7
7
7
7
7
7
7
7
7
7
7
7
7
7
7
7
7
7
7
7
7
7
7
7
7
7
7
7
7
7
7
7
7
7
7
7
7
7
7
7
7
7
7
7
7
7
7
7
7
7
7
7
7
7
7
7
7
7
7
7
7
7
7
