# vtk DataFile Version 2.0
periodic_box_structured_4x2x2
ASCII
DATASET UNSTRUCTURED_GRID
POINTS 45 double
0.00000000000000000e+00 0.00000000000000000e+00 0.00000000000000000e+00
5.00000000000000000e-01 0.00000000000000000e+00 0.00000000000000000e+00
1.00000000000000000e+00 0.00000000000000000e+00 0.00000000000000000e+00
1.50000000000000000e+00 0.00000000000000000e+00 0.00000000000000000e+00
2.00000000000000000e+00 0.00000000000000000e+00 0.00000000000000000e+00
0.00000000000000000e+00 5.00000000000000000e-01 0.00000000000000000e+00
5.00000000000000000e-01 5.00000000000000000e-01 0.00000000000000000e+00
1.00000000000000000e+00 5.00000000000000000e-01 0.00000000000000000e+00
1.50000000000000000e+00 5.00000000000000000e-01 0.00000000000000000e+00
2.00000000000000000e+00 5.00000000000000000e-01 0.00000000000000000e+00
0.00000000000000000e+00 1.00000000000000000e+00 0.00000000000000000e+00
5.00000000000000000e-01 1.00000000000000000e+00 0.00000000000000000e+00
1.00000000000000000e+00 1.00000000000000000e+00 0.00000000000000000e+00
1.50000000000000000e+00 1.00000000000000000e+00 0.00000000000000000e+00
2.00000000000000000e+00 1.00000000000000000e+00 0.00000000000000000e+00
0.00000000000000000e+00 0.00000000000000000e+00 5.00000000000000000e-01
5.00000000000000000e-01 0.00000000000000000e+00 5.00000000000000000e-01
1.00000000000000000e+00 0.00000000000000000e+00 5.00000000000000000e-01
1.50000000000000000e+00 0.00000000000000000e+00 5.00000000000000000e-01
2.00000000000000000e+00 0.00000000000000000e+00 5.00000000000000000e-01
0.00000000000000000e+00 5.00000000000000000e-01 5.00000000000000000e-01
5.47669976669814207e-01 4.88019573501961790e-01 5.42324623376395532e-01
9.76169242386354385e-01 4.81909705841419733e-01 4.61809123296664292e-01
1.47417662932527849e+00 4.81853392878222653e-01 5.46407924517837595e-01
2.00000000000000000e+00 5.00000000000000000e-01 5.00000000000000000e-01
0.00000000000000000e+00 1.00000000000000000e+00 5.00000000000000000e-01
5.00000000000000000e-01 1.00000000000000000e+00 5.00000000000000000e-01
1.00000000000000000e+00 1.00000000000000000e+00 5.00000000000000000e-01
1.50000000000000000e+00 1.00000000000000000e+00 5.00000000000000000e-01
2.00000000000000000e+00 1.00000000000000000e+00 5.00000000000000000e-01
0.00000000000000000e+00 0.00000000000000000e+00 1.00000000000000000e+00
5.00000000000000000e-01 0.00000000000000000e+00 1.00000000000000000e+00
1.00000000000000000e+00 0.00000000000000000e+00 1.00000000000000000e+00
1.50000000000000000e+00 0.00000000000000000e+00 1.00000000000000000e+00
2.00000000000000000e+00 0.00000000000000000e+00 1.00000000000000000e+00
0.00000000000000000e+00 5.00000000000000000e-01 1.00000000000000000e+00
5.00000000000000000e-01 5.00000000000000000e-01 1.00000000000000000e+00
1.00000000000000000e+00 5.00000000000000000e-01 1.00000000000000000e+00
1.50000000000000000e+00 5.00000000000000000e-01 1.00000000000000000e+00
2.00000000000000000e+00 5.00000000000000000e-01 1.00000000000000000e+00
0.00000000000000000e+00 1.00000000000000000e+00 1.00000000000000000e+00
5.00000000000000000e-01 1.00000000000000000e+00 1.00000000000000000e+00
1.00000000000000000e+00 1.00000000000000000e+00 1.00000000000000000e+00
1.50000000000000000e+00 1.00000000000000000e+00 1.00000000000000000e+00
2.00000000000000000e+00 1.00000000000000000e+00 1.00000000000000000e+00

CELLS 176 800
3 0 6 1
3 0 5 6
3 0 20 5
3 0 15 20
3 0 16 15
3 0 1 16
3 1 7 2
3 1 6 7
3 1 17 16
3 1 2 17
3 2 8 3
3 2 7 8
3 2 18 17
3 2 3 18
3 3 9 4
3 4 9 24
3 3 8 9
3 3 19 18
3 3 4 19
3 19 4 24
3 5 11 6
3 5 10 11
3 11 10 26
3 5 25 10
3 10 25 26
3 5 20 25
3 6 12 7
3 6 11 12
3 12 11 27
3 11 26 27
3 7 13 8
3 7 12 13
3 13 12 28
3 12 27 28
3 8 14 9
3 9 14 29
3 8 13 14
3 14 13 29
3 13 28 29
3 24 9 29
3 15 35 20
3 15 30 35
3 35 30 36
3 15 31 30
3 30 31 36
3 15 16 31
3 36 31 37
3 16 32 31
3 31 32 37
3 16 17 32
3 37 32 38
3 17 33 32
3 32 33 38
3 17 18 33
3 19 24 39
3 38 33 39
3 18 34 33
3 33 34 39
3 18 19 34
3 34 19 39
3 26 25 41
3 20 40 25
3 25 40 41
3 20 35 40
3 40 35 41
3 35 36 41
3 27 26 42
3 26 41 42
3 41 36 42
3 36 37 42
3 28 27 43
3 27 42 43
3 42 37 43
3 37 38 43
3 24 29 44
3 29 28 44
3 28 43 44
3 43 38 44
3 38 39 44
3 39 24 44
4 0 1 6 21
4 0 6 5 21
4 0 5 20 21
4 0 20 15 21
4 0 15 16 21
4 0 16 1 21
4 1 2 7 22
4 1 7 6 22
4 1 6 21 22
4 1 21 16 22
4 1 16 17 22
4 1 17 2 22
4 2 3 8 23
4 2 8 7 23
4 2 7 22 23
4 2 22 17 23
4 2 17 18 23
4 2 18 3 23
4 3 4 9 24
4 3 9 8 24
4 3 8 23 24
4 3 23 18 24
4 3 18 19 24
4 3 19 4 24
4 5 6 11 26
4 5 11 10 26
4 5 10 25 26
4 5 25 20 26
4 5 20 21 26
4 5 21 6 26
4 6 7 12 27
4 6 12 11 27
4 6 11 26 27
4 6 26 21 27
4 6 21 22 27
4 6 22 7 27
4 7 8 13 28
4 7 13 12 28
4 7 12 27 28
4 7 27 22 28
4 7 22 23 28
4 7 23 8 28
4 8 9 14 29
4 8 14 13 29
4 8 13 28 29
4 8 28 23 29
4 8 23 24 29
4 8 24 9 29
4 15 16 21 36
4 15 21 20 36
4 15 20 35 36
4 15 35 30 36
4 15 30 31 36
4 15 31 16 36
4 16 17 22 37
4 16 22 21 37
4 16 21 36 37
4 16 36 31 37
4 16 31 32 37
4 16 32 17 37
4 17 18 23 38
4 17 23 22 38
4 17 22 37 38
4 17 37 32 38
4 17 32 33 38
4 17 33 18 38
4 18 19 24 39
4 18 24 23 39
4 18 23 38 39
4 18 38 33 39
4 18 33 34 39
4 18 34 19 39
4 20 21 26 41
4 20 26 25 41
4 20 25 40 41
4 20 40 35 41
4 20 35 36 41
4 20 36 21 41
4 21 22 27 42
4 21 27 26 42
4 21 26 41 42
4 21 41 36 42
4 21 36 37 42
4 21 37 22 42
4 22 23 28 43
4 22 28 27 43
4 22 27 42 43
4 22 42 37 43
4 22 37 38 43
4 22 38 23 43
4 23 24 29 44
4 23 29 28 44
4 23 28 43 44
4 23 43 38 44
4 23 38 39 44
4 23 39 24 44

CELL_TYPES 176
5
5
5
5
5
5
5
5
5
5
5
5
5
5
5
5
5
5
5
5
5
5
5
5
5
5
5
5
5
5
5
5
5
5
5
5
5
5
5
5
5
5
5
5
5
5
5
5
5
5
5
5
5
5
5
5
5
5
5
5
5
5
5
5
5
5
5
5
5
5
5
5
5
5
5
5
5
5
5
5
10
10
10
10
10
10
10
10
10
10
10
10
10
10
10
10
10
10
10
10
10
10
10
10
10
10
10
10
10
10
10
10
10
10
10
10
10
10
10
10
10
10
10
10
10
10
10
10
10
10
10
10
10
10
10
10
10
10
10
10
10
10
10
10
10
10
10
10
10
10
10
10
10
10
10
10
10
10
10
10
10
10
10
10
10
10
10
10
10
10
10
10
10
10
10
10

CELL_DATA 176
SCALARS CellEntityIds int 1
LOOKUP_TABLE default
5
5
1
1
3
3
5
5
3
3
5
5
3
3
5
2
5
3
3
2
5
5
4
1
4
1
5
5
4
4
5
5
4
4
5
2
5
4
4
2
1
1
6
3
6
3
6
3
6
3
6
3
6
3
2
6
3
6
3
2
4
1
4
1
6
6
4
4
6
6
4
4
6
6
2
4
4
6
6
2
7
7
7
7
7
7
7
7
7
7
7
7
7
7
7
7
7
7
7
7
7
7
7
7
7
7
7
7
7
7
7
7
7
7
7
7
7
7
7
7
7
7
7
7
7
7
7
7
7
7
7
7
7
7
7
7
7
7
7
7
7
7
7
7
7
7
7
7
7
7
7
7
7
7
7
7
7
7
7
7
7
7
7
7
7
7
7
7
7
7
7
7
7
7
7
7
SCALARS boundary_id int 1
LOOKUP_TABLE default
5
5
1
1
3
3
5
5
3
3
5
5
3
3
5
2
5
3
3
2
5
5
4
1
4
1
5
5
4
4
5
5
4
4
5
2
5
4
4
2
1
1
6
3
6
3
6
3
6
3
6
3
6
3
2
6
3
6
3
2
4
1
4
1
6
6
4
4
6
6
4
4
6
6
2
4
4
6
6
2
0
0
0
0
0
0
0
0
0
0
0
0
0
0
0
0
0
0
0
0
0
0
0
0
0
0
0
0
0
0
0
0
0
0
0
0
0
0
0
0
0
0
0
0
0
0
0
0
0
0
0
0
0
0
0
0
0
0
0
0
0
0
0
0
0
0
0
0
0
0
0
0
0
0
0
0
0
0
0
0
0
0
0
0
0
0
0
0
0
0
0
0
0
0
0
0
SCALARS material_id int 1
LOOKUP_TABLE default
0
0
0
0
0
0
0
0
0
0
0
0
0
0
0
0
0
0
0
0
0
0
0
0
0
0
0
0
0
0
0
0
0
0
0
0
0
0
0
0
0
0
0
0
0
0
0
0
0
0
0
0
0
0
0
0
0
0
0
0
0
0
0
0
0
0
0
0
0
0
0
0
0
0
0
0
0
0
0
0
1
1
1
1
1
1
1
1
1
1
1
1
1
1
1
1
1
1
1
1
1
1
1
1
1
1
1
1
1
1
1
1
1
1
1
1
1
1
1
1
1
1
1
1
1
1
1
1
1
1
1
1
1
1
1
1
1
1
1
1
1
1
1
1
1
1
1
1
1
1
1
1
1
1
1
1
1
1
1
1
1
1
1
1
1
1
1
1
1
1
1
1
1
1
1
1
