# vtk DataFile Version 2.0
periodic_box_2x1x1_nx8
ASCII
DATASET UNSTRUCTURED_GRID
POINTS 36 double
0.0 0.0 0.0
0.25 0.0 0.0
0.5 0.0 0.0
0.75 0.0 0.0
1.0 0.0 0.0
1.25 0.0 0.0
1.5 0.0 0.0
1.75 0.0 0.0
2.0 0.0 0.0
0.0 1.0 0.0
0.25 1.0 0.0
0.5 1.0 0.0
0.75 1.0 0.0
1.0 1.0 0.0
1.25 1.0 0.0
1.5 1.0 0.0
1.75 1.0 0.0
2.0 1.0 0.0
0.0 0.0 1.0
0.25 0.0 1.0
0.5 0.0 1.0
0.75 0.0 1.0
1.0 0.0 1.0
1.25 0.0 1.0
1.5 0.0 1.0
1.75 0.0 1.0
2.0 0.0 1.0
0.0 1.0 1.0
0.25 1.0 1.0
0.5 1.0 1.0
0.75 1.0 1.0
1.0 1.0 1.0
1.25 1.0 1.0
1.5 1.0 1.0
1.75 1.0 1.0
2.0 1.0 1.0

CELLS 116 512
3 0 10 1
3 0 1 19
3 0 9 10
3 0 27 9
3 0 19 18
3 0 18 27
3 1 11 2
3 1 2 20
3 1 10 11
3 1 20 19
3 2 12 3
3 2 3 21
3 2 11 12
3 2 21 20
3 3 13 4
3 3 4 22
3 3 12 13
3 3 22 21
3 4 14 5
3 4 5 23
3 4 13 14
3 4 23 22
3 5 15 6
3 5 6 24
3 5 14 15
3 5 24 23
3 6 16 7
3 6 7 25
3 6 15 16
3 6 25 24
3 7 17 8
3 7 8 26
3 7 16 17
3 7 26 25
3 8 17 35
3 26 8 35
3 10 9 28
3 9 27 28
3 11 10 29
3 10 28 29
3 12 11 30
3 11 29 30
3 13 12 31
3 12 30 31
3 14 13 32
3 13 31 32
3 15 14 33
3 14 32 33
3 16 15 34
3 15 33 34
3 17 16 35
3 16 34 35
3 18 19 28
3 27 18 28
3 19 20 29
3 28 19 29
3 20 21 30
3 29 20 30
3 21 22 31
3 30 21 31
3 22 23 32
3 31 22 32
3 23 24 33
3 32 23 33
3 24 25 34
3 33 24 34
3 25 26 35
3 34 25 35
4 0 1 10 28
4 0 10 9 28
4 0 9 27 28
4 0 27 18 28
4 0 18 19 28
4 0 19 1 28
4 1 2 11 29
4 1 11 10 29
4 1 10 28 29
4 1 28 19 29
4 1 19 20 29
4 1 20 2 29
4 2 3 12 30
4 2 12 11 30
4 2 11 29 30
4 2 29 20 30
4 2 20 21 30
4 2 21 3 30
4 3 4 13 31
4 3 13 12 31
4 3 12 30 31
4 3 30 21 31
4 3 21 22 31
4 3 22 4 31
4 4 5 14 32
4 4 14 13 32
4 4 13 31 32
4 4 31 22 32
4 4 22 23 32
4 4 23 5 32
4 5 6 15 33
4 5 15 14 33
4 5 14 32 33
4 5 32 23 33
4 5 23 24 33
4 5 24 6 33
4 6 7 16 34
4 6 16 15 34
4 6 15 33 34
4 6 33 24 34
4 6 24 25 34
4 6 25 7 34
4 7 8 17 35
4 7 17 16 35
4 7 16 34 35
4 7 34 25 35
4 7 25 26 35
4 7 26 8 35

CELL_TYPES 116
5
5
5
5
5
5
5
5
5
5
5
5
5
5
5
5
5
5
5
5
5
5
5
5
5
5
5
5
5
5
5
5
5
5
5
5
5
5
5
5
5
5
5
5
5
5
5
5
5
5
5
5
5
5
5
5
5
5
5
5
5
5
5
5
5
5
5
5
10
10
10
10
10
10
10
10
10
10
10
10
10
10
10
10
10
10
10
10
10
10
10
10
10
10
10
10
10
10
10
10
10
10
10
10
10
10
10
10
10
10
10
10
10
10
10
10

CELL_DATA 116
SCALARS CellEntityIds int 1
LOOKUP_TABLE default
5
3
5
1
3
1
5
3
5
3
5
3
5
3
5
3
5
3
5
3
5
3
5
3
5
3
5
3
5
3
5
3
5
3
2
2
4
4
4
4
4
4
4
4
4
4
4
4
4
4
4
4
6
6
6
6
6
6
6
6
6
6
6
6
6
6
6
6
7
7
7
7
7
7
7
7
7
7
7
7
7
7
7
7
7
7
7
7
7
7
7
7
7
7
7
7
7
7
7
7
7
7
7
7
7
7
7
7
7
7
7
7
7
7
7
7
SCALARS boundary_id int 1
LOOKUP_TABLE default
5
3
5
1
3
1
5
3
5
3
5
3
5
3
5
3
5
3
5
3
5
3
5
3
5
3
5
3
5
3
5
3
5
3
2
2
4
4
4
4
4
4
4
4
4
4
4
4
4
4
4
4
6
6
6
6
6
6
6
6
6
6
6
6
6
6
6
6
0
0
0
0
0
0
0
0
0
0
0
0
0
0
0
0
0
0
0
0
0
0
0
0
0
0
0
0
0
0
0
0
0
0
0
0
0
0
0
0
0
0
0
0
0
0
0
0
SCALARS material_id int 1
LOOKUP_TABLE default
0
0
0
0
0
0
0
0
0
0
0
0
0
0
0
0
0
0
0
0
0
0
0
0
0
0
0
0
0
0
0
0
0
0
0
0
0
0
0
0
0
0
0
0
0
0
0
0
0
0
0
0
0
0
0
0
0
0
0
0
0
0
0
0
0
0
0
0
1
1
1
1
1
1
1
1
1
1
1
1
1
1
1
1
1
1
1
1
1
1
1
1
1
1
1
1
1
1
1
1
1
1
1
1
1
1
1
1
1
1
1
1
1
1
1
1
