# vtk DataFile Version 2.0
periodic_box_2x1x1_nx4
ASCII
DATASET UNSTRUCTURED_GRID
POINTS 20 double
0.0 0.0 0.0
0.5 0.0 0.0
1.0 0.0 0.0
1.5 0.0 0.0
2.0 0.0 0.0
0.0 1.0 0.0
0.5 1.0 0.0
1.0 1.0 0.0
1.5 1.0 0.0
2.0 1.0 0.0
0.0 0.0 1.0
0.5 0.0 1.0
1.0 0.0 1.0
1.5 0.0 1.0
2.0 0.0 1.0
0.0 1.0 1.0
0.5 1.0 1.0
1.0 1.0 1.0
1.5 1.0 1.0
2.0 1.0 1.0

CELLS 60 264
3 0 6 1
3 0 1 11
3 0 5 6
3 0 15 5
3 0 11 10
3 0 10 15
3 1 7 2
3 1 2 12
3 1 6 7
3 1 12 11
3 2 8 3
3 2 3 13
3 2 7 8
3 2 13 12
3 3 9 4
3 3 4 14
3 3 8 9
3 3 14 13
3 4 9 19
3 14 4 19
3 6 5 16
3 5 15 16
3 7 6 17
3 6 16 17
3 8 7 18
3 7 17 18
3 9 8 19
3 8 18 19
3 10 11 16
3 15 10 16
3 11 12 17
3 16 11 17
3 12 13 18
3 17 12 18
3 13 14 19
3 18 13 19
4 0 1 6 16
4 0 6 5 16
4 0 5 15 16
4 0 15 10 16
4 0 10 11 16
4 0 11 1 16
4 1 2 7 17
4 1 7 6 17
4 1 6 16 17
4 1 16 11 17
4 1 11 12 17
4 1 12 2 17
4 2 3 8 18
4 2 8 7 18
4 2 7 17 18
4 2 17 12 18
4 2 12 13 18
4 2 13 3 18
4 3 4 9 19
4 3 9 8 19
4 3 8 18 19
4 3 18 13 19
4 3 13 14 19
4 3 14 4 19

CELL_TYPES 60
5
5
5
5
5
5
5
5
5
5
5
5
5
5
5
5
5
5
5
5
5
5
5
5
5
5
5
5
5
5
5
5
5
5
5
5
10
10
10
10
10
10
10
10
10
10
10
10
10
10
10
10
10
10
10
10
10
10
10
10

CELL_DATA 60
SCALARS CellEntityIds int 1
LOOKUP_TABLE default
5
3
5
1
3
1
5
3
5
3
5
3
5
3
5
3
5
3
2
2
4
4
4
4
4
4
4
4
6
6
6
6
6
6
6
6
7
7
7
7
7
7
7
7
7
7
7
7
7
7
7
7
7
7
7
7
7
7
7
7
SCALARS boundary_id int 1
LOOKUP_TABLE default
5
3
5
1
3
1
5
3
5
3
5
3
5
3
5
3
5
3
2
2
4
4
4
4
4
4
4
4
6
6
6
6
6
6
6
6
0
0
0
0
0
0
0
0
0
0
0
0
0
0
0
0
0
0
0
0
0
0
0
0
SCALARS material_id int 1
LOOKUP_TABLE default
0
0
0
0
0
0
0
0
0
0
0
0
0
0
0
0
0
0
0
0
0
0
0
0
0
0
0
0
0
0
0
0
0
0
0
0
1
1
1
1
1
1
1
1
1
1
1
1
1
1
1
1
1
1
1
1
1
1
1
1
