# vtk DataFile Version 2.0
periodic_box_coarse, Created by Gmsh
ASCII
DATASET UNSTRUCTURED_GRID
POINTS 194 double
0 0 0
1 0 0
1 0.25 0
0 0.25 0
0 0 0.25
1 0 0.25
1 0.25 0.25
0 0.25 0.25
0.875 0.25 0.25
0.375 0.25 0
0.125 0.25 0
0 0.125 0
0.125 0 0.25
0.375 0 0.25
0.625 0 0.25
0.875 0 0.25
1 0.125 0.25
0.625 0.25 0
0.625 0.25 0.25
0.375 0.25 0.25
0.125 0.25 0.25
0 0.125 0.25
0 0 0.125
1 0 0.125
1 0.25 0.125
0 0.25 0.125
0.75 0.25 0.25
0.499999999998694 0 0
0.7499999999993416 0 0
0.75 0.25 0
0.5 0.25 0
0.25 0.25 0
0.25 0 0.25
0.5 0 0.25
0.75 0 0.25
0.2499999999994121 0 0
0.5 0.25 0.25
0.25 0.25 0.25
0.1249999999997061 0 0
0.374999999999053 0 0
0.6249999999990178 0 0
0.8749999999996708 0 0
1 0.125 0
0.875 0.25 0
0 0.125 0.125
1 0.125 0.125
0.6249999999990178 0 0.1250000000003292
0.3749999999994716 0 0.1250000000000548
0.124999999999706 0 0.125
0.8749999999998354 0 0.125
0.6249999999990178 0.25 0.1250000000003292
0.3749999999994716 0.25 0.1250000000000548
0.124999999999706 0.25 0.125
0.8749999999998354 0.25 0.125
0.3749999999994716 0.1249999999999402 0
0.124999999999706 0.125000000000294 0
0.8749999999996708 0.125 0
0.6249999999990178 0.124999999999347 0
0.3749999999994716 0.1249999999999402 0.25
0.124999999999706 0.125000000000294 0.25
0.8749999999996708 0.125 0.25
0.6249999999990178 0.124999999999347 0.25
0 0.0625 0.0625
0 0.1875 0.0625
0 0.0625 0.1875
0 0.1875 0.1875
1 0.0625 0.0625
1 0.1875 0.0625
1 0.0625 0.1875
1 0.1875 0.1875
0.062499999999853 0 0.0625
0.062499999999853 0 0.1875
0.187499999999559 0 0.0625
0.9374999999999176 0 0.1875
0.9374999999999176 0 0.0625
0.8124999999995886 0 0.0625
0.187499999999853 0 0.1875
0.8124999999999176 0 0.1875
0.4374999999990828 0 0.06250000000002739
0.3124999999994418 0 0.06250000000002739
0.2499999999995888 0 0.1250000000000274
0.6874999999991798 0 0.0625000000001646
0.5624999999988559 0 0.0625000000001646
0.4999999999992447 0 0.125000000000192
0.7499999999996708 0 0.125
0.6874999999995088 0 0.1875000000001646
0.3124999999997358 0 0.1875000000000274
0.4374999999997358 0 0.1875000000000274
0.5624999999995088 0 0.1875000000001646
0.9374999999999176 0.25 0.1875
0.9374999999999176 0.25 0.0625
0.8124999999999176 0.25 0.0625
0.062499999999853 0.25 0.0625
0.062499999999853 0.25 0.1875
0.187499999999853 0.25 0.0625
0.8124999999999176 0.25 0.1875
0.187499999999853 0.25 0.1875
0.6874999999995088 0.25 0.0625000000001646
0.5624999999995088 0.25 0.0625000000001646
0.75 0.25 0.125
0.6874999999995088 0.25 0.1875000000001646
0.4374999999997358 0.25 0.06250000000002739
0.3124999999997358 0.25 0.06250000000002739
0.4999999999992447 0.25 0.125000000000192
0.2499999999995888 0.25 0.1250000000000274
0.5624999999995088 0.25 0.1875000000001646
0.3124999999997358 0.25 0.1875000000000274
0.4374999999997358 0.25 0.1875000000000274
0.062499999999853 0.187500000000147 0
0.062499999999853 0.06250000000014699 0
0.187499999999559 0.06250000000014699 0
0.9374999999998355 0.0625 0
0.9374999999998355 0.1875 0
0.8124999999995062 0.0625 0
0.8124999999998355 0.1875 0
0.187499999999853 0.187500000000147 0
0.3124999999994418 0.0624999999999701 0
0.4374999999990828 0.0624999999999701 0
0.2499999999995888 0.1250000000001171 0
0.5624999999988559 0.0624999999996735 0
0.6874999999991798 0.0624999999996735 0
0.4999999999992447 0.1249999999996436 0
0.7499999999996708 0.125 0
0.6874999999995088 0.1874999999996735 0
0.5624999999995088 0.1874999999996735 0
0.4374999999997358 0.1874999999999701 0
0.3124999999997358 0.1874999999999701 0
0.062499999999853 0.06250000000014699 0.25
0.062499999999853 0.187500000000147 0.25
0.187499999999853 0.06250000000014699 0.25
0.9374999999998355 0.1875 0.25
0.9374999999998355 0.0625 0.25
0.8124999999998355 0.0625 0.25
0.8124999999998355 0.1875 0.25
0.187499999999853 0.187500000000147 0.25
0.4374999999997358 0.0624999999999701 0.25
0.3124999999997358 0.0624999999999701 0.25
0.2499999999995888 0.1250000000001171 0.25
0.6874999999995088 0.0624999999996735 0.25
0.5624999999995088 0.0624999999996735 0.25
0.4999999999992447 0.1249999999996436 0.25
0.75 0.125 0.25
0.6874999999995088 0.1874999999996735 0.25
0.5624999999995088 0.1874999999996735 0.25
0.3124999999997358 0.1874999999999701 0.25
0.4374999999997358 0.1874999999999701 0.25
0.8749999999998354 0.125 0.125
0.8124999999999176 0.125 0.1875
0.8749999999997531 0.0625 0.1875
0.8749999999997531 0.1875 0.1875
0.8749999999997531 0.1875 0.0625
0.8124999999998355 0.0625 0.125
0.8749999999997531 0.0625 0.0625
0.8124999999998355 0.1875 0.125
0.75 0.125 0.125
0.6249999999990178 0.125 0.1250000000003292
0.6874999999995088 0.125 0.1875000000001646
0.6249999999990178 0.0624999999996735 0.0625000000001646
0.6874999999995088 0.0624999999996735 0.125
0.6249999999990178 0.1874999999996735 0.0625000000001646
0.6249999999990178 0.1874999999996735 0.1875000000001646
0.6249999999990178 0.0624999999996735 0.1875000000001646
0.2499999999995888 0.1874999999999701 0.0625
0.124999999999706 0.187500000000147 0.0625
0.187499999999559 0.125 0.0625
0.124999999999706 0.187500000000147 0.1875
0.187499999999559 0.06250000000014699 0.125
0.124999999999706 0.125000000000294 0.125
0.3749999999994716 0.1874999999999701 0.06250000000002739
0.3124999999994418 0.125 0.06250000000002739
0.2499999999995888 0.0624999999999701 0.1875
0.3124999999994418 0.0624999999999701 0.125
0.124999999999706 0.06250000000014699 0.1875
0.3749999999994716 0.0624999999999701 0.1875000000000274
0.3749999999994716 0.1874999999999701 0.1875000000000274
0.3749999999994716 0.1249999999999402 0.125
0.3749999999994716 0.0624999999999701 0.06250000000002739
0.124999999999706 0.06250000000014699 0.0625
0.2499999999995888 0.1874999999999701 0.1875
0.6874999999995088 0.1874999999996735 0.125
0.4999999999992447 0.0624999999999701 0.1875000000001646
0.4999999999992447 0.1874999999999701 0.1875000000001646
0.4999999999992447 0.1249999999996436 0.125
0.4999999999992447 0.1874999999996735 0.06250000000002739
0.4374999999990828 0.0624999999999701 0.125
0.4374999999990828 0.125 0.06250000000002739
0.9374999999999176 0.1875 0.125
0.9374999999999176 0.0625 0.125
0.9374999999998355 0.125 0.1875
0.9374999999998355 0.125 0.0625
0.062499999999853 0.0625 0.125
0.062499999999853 0.125000000000147 0.0625
0.062499999999853 0.125000000000147 0.1875
0.062499999999853 0.1875 0.125

CELLS 1008 4632
1 0
1 1
1 2
1 3
1 4
1 5
1 6
1 7
2 0 38
2 38 35
2 35 39
2 39 27
2 27 40
2 40 28
2 28 41
2 41 1
2 1 42
2 42 2
2 2 43
2 43 29
2 29 17
2 17 30
2 30 9
2 9 31
2 31 10
2 10 3
2 3 11
2 11 0
2 4 12
2 12 32
2 32 13
2 13 33
2 33 14
2 14 34
2 34 15
2 15 5
2 5 16
2 16 6
2 6 8
2 8 26
2 26 18
2 18 36
2 36 19
2 19 37
2 37 20
2 20 7
2 7 21
2 21 4
2 0 22
2 22 4
2 1 23
2 23 5
2 2 24
2 24 6
2 3 25
2 25 7
3 3 11 63
3 11 62 63
3 11 0 62
3 63 62 44
3 0 22 62
3 22 64 62
3 22 4 64
3 62 64 44
3 7 25 65
3 25 63 65
3 25 3 63
3 65 63 44
3 4 21 64
3 21 65 64
3 21 7 65
3 64 65 44
3 2 42 67
3 42 66 67
3 42 1 66
3 67 66 45
3 1 23 66
3 23 68 66
3 23 5 68
3 66 68 45
3 6 24 69
3 24 67 69
3 24 2 67
3 69 67 45
3 5 16 68
3 16 69 68
3 16 6 69
3 68 69 45
3 4 22 71
3 22 70 71
3 22 0 70
3 71 70 48
3 0 38 70
3 38 72 70
3 38 35 72
3 70 72 48
3 1 23 74
3 23 73 74
3 23 5 73
3 74 73 49
3 28 41 75
3 41 74 75
3 41 1 74
3 75 74 49
3 32 12 76
3 12 71 76
3 12 4 71
3 76 71 48
3 5 15 73
3 15 77 73
3 15 34 77
3 73 77 49
3 35 39 79
3 39 78 79
3 39 27 78
3 79 78 47
3 35 79 72
3 79 80 72
3 79 47 80
3 72 80 48
3 27 40 82
3 40 81 82
3 40 28 81
3 82 81 46
3 27 82 78
3 82 83 78
3 82 46 83
3 78 83 47
3 28 84 81
3 84 85 81
3 84 34 85
3 81 85 46
3 34 84 77
3 84 75 77
3 84 28 75
3 77 75 49
3 33 13 87
3 13 86 87
3 13 32 86
3 87 86 47
3 47 86 80
3 86 76 80
3 86 32 76
3 80 76 48
3 34 14 85
3 14 88 85
3 14 33 88
3 85 88 46
3 46 88 83
3 88 87 83
3 88 33 87
3 83 87 47
3 2 24 90
3 24 89 90
3 24 6 89
3 90 89 53
3 29 43 91
3 43 90 91
3 43 2 90
3 91 90 53
3 7 25 93
3 25 92 93
3 25 3 92
3 93 92 52
3 3 10 92
3 10 94 92
3 10 31 94
3 92 94 52
3 6 8 89
3 8 95 89
3 8 26 95
3 89 95 53
3 37 20 96
3 20 93 96
3 20 7 93
3 96 93 52
3 30 17 98
3 17 97 98
3 17 29 97
3 98 97 50
3 29 99 97
3 99 100 97
3 99 26 100
3 97 100 50
3 26 99 95
3 99 91 95
3 99 29 91
3 95 91 53
3 31 9 102
3 9 101 102
3 9 30 101
3 102 101 51
3 30 98 101
3 98 103 101
3 98 50 103
3 101 103 51
3 31 102 94
3 102 104 94
3 102 51 104
3 94 104 52
3 26 18 100
3 18 105 100
3 18 36 105
3 100 105 50
3 36 19 107
3 19 106 107
3 19 37 106
3 107 106 51
3 50 105 103
3 105 107 103
3 105 36 107
3 103 107 51
3 51 106 104
3 106 96 104
3 106 37 96
3 104 96 52
3 3 108 11
3 108 109 11
3 108 55 109
3 11 109 0
3 0 109 38
3 109 110 38
3 109 55 110
3 38 110 35
3 1 111 42
3 111 112 42
3 111 56 112
3 42 112 2
3 28 113 41
3 113 111 41
3 113 56 111
3 41 111 1
3 2 112 43
3 112 114 43
3 112 56 114
3 43 114 29
3 31 115 10
3 115 108 10
3 115 55 108
3 10 108 3
3 35 116 39
3 116 117 39
3 116 54 117
3 39 117 27
3 35 110 116
3 110 118 116
3 110 55 118
3 116 118 54
3 27 119 40
3 119 120 40
3 119 57 120
3 40 120 28
3 54 121 117
3 121 119 117
3 121 57 119
3 117 119 27
3 29 114 122
3 114 113 122
3 114 56 113
3 122 113 28
3 28 120 122
3 120 123 122
3 120 57 123
3 122 123 29
3 29 123 17
3 123 124 17
3 123 57 124
3 17 124 30
3 30 125 9
3 125 126 9
3 125 54 126
3 9 126 31
3 30 124 125
3 124 121 125
3 124 57 121
3 125 121 54
3 54 118 126
3 118 115 126
3 118 55 115
3 126 115 31
3 7 21 128
3 21 127 128
3 21 4 127
3 128 127 59
3 4 12 127
3 12 129 127
3 12 32 129
3 127 129 59
3 5 16 131
3 16 130 131
3 16 6 130
3 131 130 60
3 34 15 132
3 15 131 132
3 15 5 131
3 132 131 60
3 6 8 130
3 8 133 130
3 8 26 133
3 130 133 60
3 37 20 134
3 20 128 134
3 20 7 128
3 134 128 59
3 32 13 136
3 13 135 136
3 13 33 135
3 136 135 58
3 32 136 129
3 136 137 129
3 136 58 137
3 129 137 59
3 33 14 139
3 14 138 139
3 14 34 138
3 139 138 61
3 58 135 140
3 135 139 140
3 135 33 139
3 140 139 61
3 26 141 133
3 141 132 133
3 141 34 132
3 133 132 60
3 34 141 138
3 141 142 138
3 141 26 142
3 138 142 61
3 26 18 142
3 18 143 142
3 18 36 143
3 142 143 61
3 36 19 145
3 19 144 145
3 19 37 144
3 145 144 58
3 36 145 143
3 145 140 143
3 145 58 140
3 143 140 61
3 58 144 137
3 144 134 137
3 144 37 134
3 137 134 59
4 49 146 77 148
4 146 53 147 149
4 77 147 34 132
4 148 149 132 60
4 146 77 148 149
4 146 149 147 77
4 77 148 149 132
4 77 132 149 147
4 53 146 147 150
4 146 49 77 152
4 147 77 34 151
4 150 152 151 56
4 146 147 150 152
4 146 152 77 147
4 147 150 152 151
4 147 151 152 77
4 53 147 149 95
4 147 34 132 141
4 149 132 60 133
4 95 141 133 26
4 147 149 95 141
4 147 141 132 149
4 149 95 141 133
4 149 133 141 132
4 53 147 95 150
4 147 34 141 151
4 95 141 26 153
4 150 151 153 56
4 147 95 150 151
4 147 151 141 95
4 95 150 151 153
4 95 153 151 141
4 29 91 99 114
4 91 53 95 150
4 99 95 26 153
4 114 150 153 56
4 91 99 114 150
4 91 150 95 99
4 99 114 150 153
4 99 153 150 95
4 56 152 151 113
4 152 49 77 75
4 151 77 34 84
4 113 75 84 28
4 152 151 113 75
4 152 75 77 151
4 151 113 75 84
4 151 84 75 77
4 29 99 154 114
4 99 26 141 153
4 154 141 34 151
4 114 153 151 56
4 99 154 114 153
4 99 153 141 154
4 154 114 153 151
4 154 151 153 141
4 28 122 84 113
4 122 29 154 114
4 84 154 34 151
4 113 114 151 56
4 122 84 113 114
4 122 114 154 84
4 84 113 114 151
4 84 151 114 154
4 46 155 85 157
4 155 50 156 159
4 85 156 34 158
4 157 159 158 57
4 155 85 157 159
4 155 159 156 85
4 85 157 159 158
4 85 158 159 156
4 50 155 156 160
4 155 46 85 161
4 156 85 34 138
4 160 161 138 61
4 155 156 160 161
4 155 161 85 156
4 156 160 161 138
4 156 138 161 85
4 55 118 163 110
4 118 54 162 116
4 163 162 52 164
4 110 116 164 35
4 118 163 110 116
4 118 116 162 163
4 163 110 116 164
4 163 164 116 162
4 52 163 164 165
4 163 55 110 167
4 164 110 35 166
4 165 167 166 59
4 163 164 165 167
4 163 167 110 164
4 164 165 167 166
4 164 166 167 110
4 54 162 116 168
4 162 52 164 104
4 116 164 35 169
4 168 104 169 51
4 162 116 168 104
4 162 104 164 116
4 116 168 104 169
4 116 169 104 164
4 48 170 72 172
4 170 58 171 137
4 72 171 35 166
4 172 137 166 59
4 170 72 172 137
4 170 137 171 72
4 72 172 137 166
4 72 166 137 171
4 47 80 173 79
4 80 48 170 72
4 173 170 58 171
4 79 72 171 35
4 80 173 79 72
4 80 72 170 173
4 173 79 72 171
4 173 171 72 170
4 51 169 168 174
4 169 35 116 171
4 168 116 54 175
4 174 171 175 58
4 169 168 174 171
4 169 171 116 168
4 168 174 171 175
4 168 175 171 116
4 58 171 175 173
4 171 35 116 79
4 175 116 54 176
4 173 79 176 47
4 171 175 173 79
4 171 79 116 175
4 175 173 79 176
4 175 176 79 116
4 59 167 166 172
4 167 55 110 177
4 166 110 35 72
4 172 177 72 48
4 167 166 172 177
4 167 177 110 166
4 166 172 177 72
4 166 72 177 110
4 51 104 169 174
4 104 52 164 178
4 169 164 35 171
4 174 178 171 58
4 104 169 174 178
4 104 178 164 169
4 169 174 178 171
4 169 171 178 164
4 58 178 171 137
4 178 52 164 165
4 171 164 35 166
4 137 165 166 59
4 178 171 137 165
4 178 165 164 171
4 171 137 165 166
4 171 166 165 164
4 50 156 100 160
4 156 34 141 138
4 100 141 26 142
4 160 138 142 61
4 156 100 160 138
4 156 138 141 100
4 100 160 138 142
4 100 142 138 141
4 50 156 159 100
4 156 34 158 141
4 159 158 57 179
4 100 141 179 26
4 156 159 100 141
4 156 141 158 159
4 159 100 141 179
4 159 179 141 158
4 26 100 99 179
4 100 50 97 159
4 99 97 29 123
4 179 159 123 57
4 100 99 179 159
4 100 159 97 99
4 99 179 159 123
4 99 123 159 97
4 58 140 180 181
4 140 61 161 160
4 180 161 46 155
4 181 160 155 50
4 140 180 181 160
4 140 160 161 180
4 180 181 160 155
4 180 155 160 161
4 50 155 181 159
4 155 46 180 157
4 181 180 58 182
4 159 157 182 57
4 155 181 159 157
4 155 157 180 181
4 181 159 157 182
4 181 182 157 180
4 50 181 103 159
4 181 58 174 182
4 103 174 51 183
4 159 182 183 57
4 181 103 159 182
4 181 182 174 103
4 103 159 182 183
4 103 183 182 174
4 29 154 99 123
4 154 34 141 158
4 99 141 26 179
4 123 158 179 57
4 154 99 123 158
4 154 158 141 99
4 99 123 158 179
4 99 179 158 141
4 27 184 78 82
4 184 58 173 180
4 78 173 47 83
4 82 180 83 46
4 184 78 82 180
4 184 180 173 78
4 78 82 180 83
4 78 83 180 173
4 54 121 168 117
4 121 57 183 119
4 168 183 51 185
4 117 119 185 27
4 121 168 117 119
4 121 119 183 168
4 168 117 119 185
4 168 185 119 183
4 57 158 157 120
4 158 34 85 84
4 157 85 46 81
4 120 84 81 28
4 158 157 120 84
4 158 84 85 157
4 157 120 84 81
4 157 81 84 85
4 51 168 185 174
4 168 54 117 175
4 185 117 27 184
4 174 175 184 58
4 168 185 174 175
4 168 175 117 185
4 185 174 175 184
4 185 184 175 117
4 58 175 184 173
4 175 54 117 176
4 184 117 27 78
4 173 176 78 47
4 175 184 173 176
4 175 176 117 184
4 184 173 176 78
4 184 78 176 117
4 29 122 154 123
4 122 28 84 120
4 154 84 34 158
4 123 120 158 57
4 122 154 123 120
4 122 120 84 154
4 154 123 120 158
4 154 158 120 84
4 48 80 170 76
4 80 47 173 86
4 170 173 58 136
4 76 86 136 32
4 80 170 76 86
4 80 86 173 170
4 170 76 86 136
4 170 136 86 173
4 52 104 96 178
4 104 51 106 174
4 96 106 37 144
4 178 174 144 58
4 104 96 178 174
4 104 174 106 96
4 96 178 174 144
4 96 144 174 106
4 48 170 172 76
4 170 58 137 136
4 172 137 59 129
4 76 136 129 32
4 170 172 76 136
4 170 136 137 172
4 172 76 136 129
4 172 129 136 137
4 54 162 168 126
4 162 52 104 94
4 168 104 51 102
4 126 94 102 31
4 162 168 126 94
4 162 94 104 168
4 168 126 94 102
4 168 102 94 104
4 58 144 178 137
4 144 37 96 134
4 178 96 52 165
4 137 134 165 59
4 144 178 137 134
4 144 134 96 178
4 178 137 134 165
4 178 165 134 96
4 54 118 162 126
4 118 55 163 115
4 162 163 52 94
4 126 115 94 31
4 118 162 126 115
4 118 115 163 162
4 162 126 115 94
4 162 94 115 163
4 46 82 180 157
4 82 27 184 119
4 180 184 58 182
4 157 119 182 57
4 82 180 157 119
4 82 119 184 180
4 180 157 119 182
4 180 182 119 184
4 27 185 184 119
4 185 51 174 183
4 184 174 58 182
4 119 183 182 57
4 185 184 119 183
4 185 183 174 184
4 184 119 183 182
4 184 182 183 174
4 33 135 139 88
4 135 58 140 180
4 139 140 61 161
4 88 180 161 46
4 135 139 88 180
4 135 180 140 139
4 139 88 180 161
4 139 161 180 140
4 61 140 143 160
4 140 58 145 181
4 143 145 36 105
4 160 181 105 50
4 140 143 160 181
4 140 181 145 143
4 143 160 181 105
4 143 105 181 145
4 30 98 101 124
4 98 50 103 159
4 101 103 51 183
4 124 159 183 57
4 98 101 124 159
4 98 159 103 101
4 101 124 159 183
4 101 183 159 103
4 36 145 107 105
4 145 58 174 181
4 107 174 51 103
4 105 181 103 50
4 145 107 105 181
4 145 181 174 107
4 107 105 181 103
4 107 103 181 174
4 33 87 135 88
4 87 47 173 83
4 135 173 58 180
4 88 83 180 46
4 87 135 88 83
4 87 83 173 135
4 135 88 83 180
4 135 180 83 173
4 54 121 125 168
4 121 57 124 183
4 125 124 30 101
4 168 183 101 51
4 121 125 168 183
4 121 183 124 125
4 125 168 183 101
4 125 101 183 124
4 53 149 146 186
4 149 60 148 188
4 146 148 49 187
4 186 188 187 45
4 149 146 186 188
4 149 188 148 146
4 146 186 188 187
4 146 187 188 148
4 53 146 150 186
4 146 49 152 187
4 150 152 56 189
4 186 187 189 45
4 146 150 186 187
4 146 187 152 150
4 150 186 187 189
4 150 189 187 152
4 28 113 75 41
4 113 56 152 111
4 75 152 49 74
4 41 111 74 1
4 113 75 41 111
4 113 111 152 75
4 75 41 111 74
4 75 74 111 152
4 6 89 24 69
4 89 53 90 186
4 24 90 2 67
4 69 186 67 45
4 89 24 69 186
4 89 186 90 24
4 24 69 186 67
4 24 67 186 90
4 5 131 16 68
4 131 60 130 188
4 16 130 6 69
4 68 188 69 45
4 131 16 68 188
4 131 188 130 16
4 16 68 188 69
4 16 69 188 130
4 60 133 130 149
4 133 26 8 95
4 130 8 6 89
4 149 95 89 53
4 133 130 149 95
4 133 95 8 130
4 130 149 95 89
4 130 89 95 8
4 29 43 91 114
4 43 2 90 112
4 91 90 53 150
4 114 112 150 56
4 43 91 114 112
4 43 112 90 91
4 91 114 112 150
4 91 150 112 90
4 5 73 15 131
4 73 49 77 148
4 15 77 34 132
4 131 148 132 60
4 73 15 131 148
4 73 148 77 15
4 15 131 148 132
4 15 132 148 77
4 45 189 67 66
4 189 56 112 111
4 67 112 2 42
4 66 111 42 1
4 189 67 66 111
4 189 111 112 67
4 67 66 111 42
4 67 42 111 112
4 45 68 187 66
4 68 5 73 23
4 187 73 49 74
4 66 23 74 1
4 68 187 66 23
4 68 23 73 187
4 187 66 23 74
4 187 74 23 73
4 53 89 149 186
4 89 6 130 69
4 149 130 60 188
4 186 69 188 45
4 89 149 186 69
4 89 69 130 149
4 149 186 69 188
4 149 188 69 130
4 56 112 150 189
4 112 2 90 67
4 150 90 53 186
4 189 67 186 45
4 112 150 189 67
4 112 67 90 150
4 150 189 67 186
4 150 186 67 90
4 60 131 148 188
4 131 5 73 68
4 148 73 49 187
4 188 68 187 45
4 131 148 188 68
4 131 68 73 148
4 148 188 68 187
4 148 187 68 73
4 49 152 187 74
4 152 56 189 111
4 187 189 45 66
4 74 111 66 1
4 152 187 74 111
4 152 111 189 187
4 187 74 111 66
4 187 66 111 189
4 48 172 177 190
4 172 59 167 192
4 177 167 55 191
4 190 192 191 44
4 172 177 190 192
4 172 192 167 177
4 177 190 192 191
4 177 191 192 167
4 59 165 167 192
4 165 52 163 193
4 167 163 55 191
4 192 193 191 44
4 165 167 192 193
4 165 193 163 167
4 167 192 193 191
4 167 191 193 163
4 0 109 11 62
4 109 55 108 191
4 11 108 3 63
4 62 191 63 44
4 109 11 62 191
4 109 191 108 11
4 11 62 191 63
4 11 63 191 108
4 0 22 70 62
4 22 4 71 64
4 70 71 48 190
4 62 64 190 44
4 22 70 62 64
4 22 64 71 70
4 70 62 64 190
4 70 190 64 71
4 3 92 25 63
4 92 52 93 193
4 25 93 7 65
4 63 193 65 44
4 92 25 63 193
4 92 193 93 25
4 25 63 193 65
4 25 65 193 93
4 7 128 21 65
4 128 59 127 192
4 21 127 4 64
4 65 192 64 44
4 128 21 65 192
4 128 192 127 21
4 21 65 192 64
4 21 64 192 127
4 46 82 157 81
4 82 27 119 40
4 157 119 57 120
4 81 40 120 28
4 82 157 81 40
4 82 40 119 157
4 157 81 40 120
4 157 120 40 119
4 36 18 143 105
4 18 26 142 100
4 143 142 61 160
4 105 100 160 50
4 18 143 105 100
4 18 100 142 143
4 143 105 100 160
4 143 160 100 142
4 34 14 138 85
4 14 33 139 88
4 138 139 61 161
4 85 88 161 46
4 14 138 85 88
4 14 88 139 138
4 138 85 88 161
4 138 161 88 139
4 30 17 98 124
4 17 29 97 123
4 98 97 50 159
4 124 123 159 57
4 17 98 124 123
4 17 123 97 98
4 98 124 123 159
4 98 159 123 97
4 55 115 108 163
4 115 31 10 94
4 108 10 3 92
4 163 94 92 52
4 115 108 163 94
4 115 94 10 108
4 108 163 94 92
4 108 92 94 10
4 37 20 96 134
4 20 7 93 128
4 96 93 52 165
4 134 128 165 59
4 20 96 134 128
4 20 128 93 96
4 96 134 128 165
4 96 165 128 93
4 32 86 136 13
4 86 47 173 87
4 136 173 58 135
4 13 87 135 33
4 86 136 13 87
4 86 87 173 136
4 136 13 87 135
4 136 135 87 173
4 59 127 172 129
4 127 4 71 12
4 172 71 48 76
4 129 12 76 32
4 127 172 129 12
4 127 12 71 172
4 172 129 12 76
4 172 76 12 71
4 51 106 174 107
4 106 37 144 19
4 174 144 58 145
4 107 19 145 36
4 106 174 107 19
4 106 19 144 174
4 174 107 19 145
4 174 145 19 144
4 54 126 168 125
4 126 31 102 9
4 168 102 51 101
4 125 9 101 30
4 126 168 125 9
4 126 9 102 168
4 168 125 9 101
4 168 101 9 102
4 0 38 109 70
4 38 35 110 72
4 109 110 55 177
4 70 72 177 48
4 38 109 70 72
4 38 72 110 109
4 109 70 72 177
4 109 177 72 110
4 35 39 116 79
4 39 27 117 78
4 116 117 54 176
4 79 78 176 47
4 39 116 79 78
4 39 78 117 116
4 116 79 78 176
4 116 176 78 117
4 48 177 70 190
4 177 55 109 191
4 70 109 0 62
4 190 191 62 44
4 177 70 190 191
4 177 191 109 70
4 70 190 191 62
4 70 62 191 109
4 48 71 172 190
4 71 4 127 64
4 172 127 59 192
4 190 64 192 44
4 71 172 190 64
4 71 64 127 172
4 172 190 64 192
4 172 192 64 127
4 52 92 163 193
4 92 3 108 63
4 163 108 55 191
4 193 63 191 44
4 92 163 193 63
4 92 63 108 163
4 163 193 63 191
4 163 191 63 108
4 59 128 165 192
4 128 7 93 65
4 165 93 52 193
4 192 65 193 44
4 128 165 192 65
4 128 65 93 165
4 165 192 65 193
4 165 193 65 93

CELL_TYPES 1008
1
1
1
1
1
1
1
1
3
3
3
3
3
3
3
3
3
3
3
3
3
3
3
3
3
3
3
3
3
3
3
3
3
3
3
3
3
3
3
3
3
3
3
3
3
3
3
3
3
3
3
3
3
3
3
3
5
5
5
5
5
5
5
5
5
5
5
5
5
5
5
5
5
5
5
5
5
5
5
5
5
5
5
5
5
5
5
5
5
5
5
5
5
5
5
5
5
5
5
5
5
5
5
5
5
5
5
5
5
5
5
5
5
5
5
5
5
5
5
5
5
5
5
5
5
5
5
5
5
5
5
5
5
5
5
5
5
5
5
5
5
5
5
5
5
5
5
5
5
5
5
5
5
5
5
5
5
5
5
5
5
5
5
5
5
5
5
5
5
5
5
5
5
5
5
5
5
5
5
5
5
5
5
5
5
5
5
5
5
5
5
5
5
5
5
5
5
5
5
5
5
5
5
5
5
5
5
5
5
5
5
5
5
5
5
5
5
5
5
5
5
5
5
5
5
5
5
5
5
5
5
5
5
5
5
5
5
5
5
5
5
5
5
5
5
5
5
5
5
5
5
5
5
5
5
5
5
5
5
5
5
5
5
5
5
5
5
5
5
5
5
5
5
5
5
5
5
5
5
5
5
5
5
5
5
5
5
5
5
5
5
5
5
5
5
5
5
5
5
5
5
5
5
5
5
5
5
5
5
5
5
5
5
5
5
5
5
5
5
5
5
5
5
5
5
5
5
5
5
5
5
5
5
5
5
5
5
5
5
5
5
5
5
5
10
10
10
10
10
10
10
10
10
10
10
10
10
10
10
10
10
10
10
10
10
10
10
10
10
10
10
10
10
10
10
10
10
10
10
10
10
10
10
10
10
10
10
10
10
10
10
10
10
10
10
10
10
10
10
10
10
10
10
10
10
10
10
10
10
10
10
10
10
10
10
10
10
10
10
10
10
10
10
10
10
10
10
10
10
10
10
10
10
10
10
10
10
10
10
10
10
10
10
10
10
10
10
10
10
10
10
10
10
10
10
10
10
10
10
10
10
10
10
10
10
10
10
10
10
10
10
10
10
10
10
10
10
10
10
10
10
10
10
10
10
10
10
10
10
10
10
10
10
10
10
10
10
10
10
10
10
10
10
10
10
10
10
10
10
10
10
10
10
10
10
10
10
10
10
10
10
10
10
10
10
10
10
10
10
10
10
10
10
10
10
10
10
10
10
10
10
10
10
10
10
10
10
10
10
10
10
10
10
10
10
10
10
10
10
10
10
10
10
10
10
10
10
10
10
10
10
10
10
10
10
10
10
10
10
10
10
10
10
10
10
10
10
10
10
10
10
10
10
10
10
10
10
10
10
10
10
10
10
10
10
10
10
10
10
10
10
10
10
10
10
10
10
10
10
10
10
10
10
10
10
10
10
10
10
10
10
10
10
10
10
10
10
10
10
10
10
10
10
10
10
10
10
10
10
10
10
10
10
10
10
10
10
10
10
10
10
10
10
10
10
10
10
10
10
10
10
10
10
10
10
10
10
10
10
10
10
10
10
10
10
10
10
10
10
10
10
10
10
10
10
10
10
10
10
10
10
10
10
10
10
10
10
10
10
10
10
10
10
10
10
10
10
10
10
10
10
10
10
10
10
10
10
10
10
10
10
10
10
10
10
10
10
10
10
10
10
10
10
10
10
10
10
10
10
10
10
10
10
10
10
10
10
10
10
10
10
10
10
10
10
10
10
10
10
10
10
10
10
10
10
10
10
10
10
10
10
10
10
10
10
10
10
10
10
10
10
10
10
10
10
10
10
10
10
10
10
10
10
10
10
10
10
10
10
10
10
10
10
10
10
10
10
10
10
10
10
10
10
10
10
10
10
10
10
10
10
10
10
10
10
10
10
10
10
10
10
10
10
10
10
10
10
10
10
10
10
10
10
10
10
10
10
10
10
10
10
10
10
10
10
10
10
10
10
10
10
10
10
10
10
10
10
10
10
10
10
10
10
10
10
10
10
10
10
10
10
10
10
10
10
10
10
10
10
10
10
10
10
10
10
10
10
10
10
10
10
10
10
10
10
10
10
10
10
10
10
10
10
10
10
10
10
10
10
10
10
10
10
10
10
10
10
10
10
10
10
10
10
10
10
10
10
10
10
10
10
10
10
10
10
10
10
10
10
10
10
10
10
10
10
10
10
10
10
10
10
10
10
10
10
10
10
10
10
10
10
10
10
10
10
10
10
10
10
10
10
10
10
10
10
10
10
10
10
10
10
10
10
10
10
10
10
10
